<svg width="314" height="252" viewBox="0 0 314 252" fill="none" xmlns="http://www.w3.org/2000/svg">
<g clip-path="url(#clip0_937_5077)">
<path d="M20.0165 252H291.797C296.532 251.995 301.118 250.351 304.778 247.346C308.437 244.341 310.944 240.161 311.871 235.517C316.289 213.569 318.439 181.857 269.561 148.406C214.074 110.431 210.896 22.3029 140.07 47.6056C75.8214 70.5581 99.2038 116.162 45.3331 157.517C18.7098 177.955 0.292775 195.605 0.00306554 227.232C-0.169956 246.192 6.98683 252 20.0165 252Z" fill="#F3F5FD"/>
<path d="M221.701 92.1468L133.411 144.255L45.1201 92.1468L133.411 16.7058L221.701 92.1468Z" fill="#9EBCEA"/>
<path d="M202.276 0H61.9531V182.109H202.276V0Z" fill="#C1D8ED"/>
<path d="M189.342 42.3597H74.8867V46.6955H189.342V42.3597Z" fill="white"/>
<path d="M189.342 106.665H74.8867V111H189.342V106.665Z" fill="white"/>
<path d="M189.342 55.2209H74.8867V59.5567H189.342V55.2209Z" fill="white"/>
<path d="M189.342 68.0818H74.8867V72.4175H189.342V68.0818Z" fill="white"/>
<path d="M189.342 80.943H74.8867V85.2787H189.342V80.943Z" fill="white"/>
<path d="M189.342 93.8038H74.8867V98.1396H189.342V93.8038Z" fill="white"/>
<path d="M174.2 158.109H90.0303V162.444H174.2V158.109Z" fill="white"/>
<path d="M189.342 119.526H74.8867V123.862H189.342V119.526Z" fill="white"/>
<path d="M189.342 132.387H74.8867V136.722H189.342V132.387Z" fill="white"/>
<path d="M189.342 145.248H74.8867V149.584H189.342V145.248Z" fill="white"/>
<path d="M189.342 19.6642H74.8867V31.4872H189.342V19.6642Z" fill="white"/>
<path d="M221.701 92.1469V202.998H45.1201V92.1469L133.411 144.255L221.701 92.1469Z" fill="#DEE8F5"/>
<path d="M61.2178 248.53L53.5361 248.505C53.5361 248.505 53.5617 240.569 53.5617 239.866H61.2434C61.2434 240.573 61.2178 248.53 61.2178 248.53Z" fill="#E98862"/>
<path d="M91.8258 247.611L84.1982 246.704C84.5414 243.815 84.9298 240.346 84.9562 239.777C84.9562 239.813 84.9562 239.843 84.9562 239.866H92.6379C92.636 240.098 92.636 240.798 91.8258 247.611Z" fill="#E98862"/>
<path d="M94.6601 244.954C94.0244 228.849 93.986 211.934 93.787 195.786C91.1452 178.37 89.7563 159.267 86.4952 141.974L86.3975 142.003L86.1115 140.052L58.2833 138.333L57.2005 156.522H57.3044C55.903 180.887 53.1954 220.056 51.5566 244.747L65.0431 245.887C67.4515 221.603 71.3791 182.917 73.5559 158.983C75.9446 171.178 78.1968 184.912 80.3177 197.252C80.7818 213.017 81.17 229.445 81.1279 245.184L94.6601 244.954Z" fill="#262626"/>
<path d="M70.5563 251.502C70.7629 251.501 70.967 251.457 71.156 251.374C71.345 251.291 71.5148 251.169 71.6547 251.017C71.7946 250.865 71.9017 250.686 71.9693 250.49C72.0368 250.295 72.0634 250.088 72.0473 249.882C72.0251 249.596 71.9217 249.323 71.7494 249.094C71.5771 248.865 71.3429 248.691 71.0746 248.59L62.1338 245.594C61.9606 245.537 61.7771 245.518 61.5958 245.538C61.4144 245.558 61.2396 245.617 61.0833 245.712C59.854 246.565 58.3837 247.001 56.8883 246.956C55.7235 246.873 54.6055 246.464 53.6617 245.776C53.5787 245.708 53.4781 245.665 53.3717 245.652C53.2652 245.639 53.1573 245.657 53.0604 245.703C52.9636 245.749 52.8818 245.822 52.8246 245.912C52.7674 246.003 52.7371 246.108 52.7373 246.215V250.589C52.7373 250.718 52.7628 250.846 52.8123 250.965C52.8617 251.084 52.9343 251.193 53.0256 251.284C53.117 251.375 53.2255 251.447 53.3448 251.496C53.4641 251.545 53.5919 251.57 53.7209 251.569L70.5563 251.502Z" fill="#C1D8ED"/>
<path d="M101.186 251.502C101.392 251.501 101.597 251.457 101.786 251.374C101.975 251.291 102.144 251.169 102.284 251.017C102.424 250.865 102.531 250.686 102.599 250.49C102.667 250.295 102.693 250.088 102.677 249.882C102.655 249.596 102.551 249.323 102.379 249.094C102.207 248.865 101.973 248.691 101.705 248.59L92.7634 245.594C92.5902 245.537 92.4066 245.518 92.2253 245.538C92.044 245.558 91.8691 245.617 91.7128 245.712C90.4836 246.565 89.0132 247.001 87.5179 246.956C86.3532 246.873 85.2352 246.464 84.2916 245.776C84.2086 245.708 84.108 245.665 84.0016 245.652C83.8951 245.639 83.7872 245.657 83.6903 245.703C83.5935 245.749 83.5117 245.822 83.4545 245.912C83.3972 246.003 83.367 246.108 83.3672 246.215V250.589C83.3672 250.718 83.3926 250.846 83.4421 250.965C83.4916 251.084 83.564 251.192 83.6554 251.284C83.7468 251.375 83.8552 251.447 83.9744 251.496C84.0937 251.545 84.2215 251.57 84.3504 251.569L101.186 251.502Z" fill="#C1D8ED"/>
<path d="M66.9805 100.99C66.9805 100.99 69.8092 99.4895 69.1774 91.7841L75.0217 90.7002C75.0217 90.7002 74.3633 97.6085 77.3215 99.802L66.9805 100.99Z" fill="#E98862"/>
<path d="M65.8613 88.7962C66.2659 91.1338 67.5414 93.3478 69.6027 94.1024C72.0495 94.9986 73.862 95.0594 76.6834 95.0594C80.5337 95.0594 80.4064 91.0424 80.5144 86.9946C80.6241 82.9304 80.3 78.5709 78.7783 77.1551C75.7422 74.3281 66.8267 76.1183 65.7425 80.8464C65.1817 83.2923 65.478 86.5709 65.8613 88.7962Z" fill="#E98862"/>
<path d="M82.8933 77.1104C82.2491 74.7479 80.242 73.5933 76.9224 74.4613C74.5615 75.0787 74.2627 74.5236 72.2636 73.5611C71.1187 73.0096 67.362 73.2614 66.4325 75.8047C65.4357 78.5296 62.3531 76.3229 62.0671 80.7619C61.8271 84.4773 63.0829 89.7883 65.6054 92.777C66.4789 93.8119 67.9037 95.0521 69.0073 95.3587C70.0912 95.6599 74.777 95.3953 75.232 95.1267C77.47 93.7972 77.2403 87.7013 76.8851 83.7912C76.8269 83.1475 76.9454 82.0782 78.5959 82.0782C79.7299 82.0782 80.3579 82.0514 80.9436 81.6288C80.9428 81.6288 83.5374 79.4734 82.8933 77.1104Z" fill="#0F1011"/>
<path d="M79.1019 87.7628C79.1303 88.0594 79.0996 88.3586 79.0114 88.6431C78.9232 88.9277 78.7794 89.1918 78.5883 89.4203C78.3972 89.6487 78.1626 89.8369 77.8982 89.9739C77.6338 90.1108 77.3448 90.1938 77.048 90.2181C76.7512 90.2423 76.4526 90.2073 76.1694 90.1151C75.8863 90.0229 75.6243 89.8753 75.3987 89.6809C75.173 89.4865 74.9883 89.2492 74.8551 88.9827C74.722 88.7163 74.6431 88.426 74.6231 88.1288C74.5938 87.8336 74.6243 87.5356 74.7126 87.2524C74.8009 86.9692 74.9452 86.7068 75.1371 86.4806C75.3289 86.2544 75.5642 86.0692 75.8291 85.9359C76.094 85.8026 76.383 85.724 76.6788 85.7048C78.2814 85.6539 79.0005 86.5256 79.1019 87.7628Z" fill="#E98862"/>
<path d="M50.0931 151.521C50.0931 152.611 50.6685 156.257 49.7426 156.517C49.1877 156.673 48.5322 153.956 48.5322 153.956" fill="#E98862"/>
<path d="M45.723 150.948C45.723 150.948 42.7001 158.308 46.148 162.537C46.2359 162.645 46.3542 162.723 46.4875 162.763C46.6208 162.802 46.7629 162.8 46.8951 162.758C47.0274 162.715 47.1437 162.633 47.2288 162.523C47.3138 162.413 47.3638 162.28 47.372 162.141C47.5395 159.29 48.1142 153.434 49.9933 154.118V149.521" fill="#E98862"/>
<path d="M113.886 111.732C113.886 111.732 118.108 108.377 118.406 107.171C118.704 105.966 115.731 103.596 115.731 103.596C115.731 103.596 119.685 99.6092 118.897 99.0314C117.966 98.3492 113.378 104.148 113.378 104.148C113.378 104.148 114.027 102.062 113.219 101.925C112.887 101.869 112.624 102.195 112.105 103.671C111.513 105.355 110.33 107.885 110.33 107.885L113.886 111.732Z" fill="#E98862"/>
<path d="M109.441 107.271L96.9534 121.326L87.1866 103.836C86.2619 101.073 84.1564 99.2216 79.8623 99.0375C78.3937 98.9746 71.2274 98.9644 65.9804 98.9644C62.4552 98.9644 59.5614 100.046 57.8905 101.718C57.0487 102.548 56.4188 103.568 56.0538 104.693L56.0033 104.674L47.6072 127.515C47.5132 127.771 47.4455 128.036 47.4053 128.306L44.0166 151.146L51.9061 152.317L55.2348 129.885L58.6257 120.66C58.9788 122.078 59.1717 123.531 59.2008 124.992C59.2008 132.677 55.7257 136.123 55.9818 140.069C56.3841 146.27 86.4997 144.805 88.0338 141.282C89.6137 137.65 86.4071 135.412 86.5476 123.531C86.563 122.237 86.6628 120.885 86.8004 119.508L92.7262 130.12C93.0365 130.676 93.4751 131.15 94.0056 131.501C94.5361 131.853 95.143 132.072 95.7756 132.141C96.4081 132.21 97.048 132.126 97.6417 131.898C98.2355 131.669 98.7658 131.301 99.1884 130.825L115.607 111.613L109.441 107.271Z" fill="#367CFF"/>
<path d="M252.817 168.218L249.352 169.038L253.697 187.423L257.162 186.604L252.817 168.218Z" fill="#F0F6FF"/>
<path d="M256.63 166.793L253.654 182.93L255.578 183.285L258.554 167.148L256.63 166.793Z" fill="#C1D8ED"/>
<path d="M256.632 166.788L256.293 168.568L258.215 168.934L258.554 167.154L256.632 166.788Z" fill="#DEE8F5"/>
<path d="M250.674 170.891L249.605 171.312L255.84 187.145L256.909 186.724L250.674 170.891Z" fill="#0CBC8B"/>
<path d="M258.706 177.822H249.308V189.838H258.706V177.822Z" fill="#C1D8ED"/>
<path d="M235.13 213.671H231.279V251.571H235.13V213.671Z" fill="#C1D8ED"/>
<path d="M231.961 213.671H228.11V251.571H231.961V213.671Z" fill="#DEE8F5"/>
<path d="M283.097 213.671H279.246V251.571H283.097V213.671Z" fill="#C1D8ED"/>
<path d="M279.928 213.671H276.077V251.571H279.928V213.671Z" fill="#DEE8F5"/>
<path d="M245.693 213.671H241.842V251.571H245.693V213.671Z" fill="#C1D8ED"/>
<path d="M242.524 213.671H238.673V251.571H242.524V213.671Z" fill="#DEE8F5"/>
<path d="M293.659 213.671H289.808V251.571H293.659V213.671Z" fill="#C1D8ED"/>
<path d="M290.49 213.671H286.639V251.571H290.49V213.671Z" fill="#DEE8F5"/>
<path d="M293.659 189.411H241.865V214.579H293.659V189.411Z" fill="#C1D8ED"/>
<path d="M279.904 189.411H228.11V214.579H279.904V189.411Z" fill="#DEE8F5"/>
<g opacity="0.53">
<path d="M277.117 192.989H230.896V210.89H277.117V192.989Z" fill="#F3F5FD"/>
</g>
<path d="M254.007 203.993C255.141 203.993 256.06 203.074 256.06 201.94C256.06 200.805 255.141 199.886 254.007 199.886C252.873 199.886 251.954 200.805 251.954 201.94C251.954 203.074 252.873 203.993 254.007 203.993Z" fill="white"/>
<path d="M35.9209 227.213C34.4435 226.729 32.9269 227.272 31.4762 228.376C33.3871 223.548 34.1761 219.187 30.9085 218.991C28.6226 218.853 26.8712 220.608 25.5408 223.103C25.0729 218.716 23.8654 215.445 21.1611 216.53C18.1923 217.72 17.7409 221.8 18.1912 226.071C16.8831 223.89 15.4748 222.674 14.1964 223.953C10.38 227.771 19.747 238.53 19.747 238.53H22.073L23.4009 239.972C23.132 240.54 22.985 240.878 22.985 240.878L24.6713 244.312C24.6713 244.312 42.0535 229.221 35.9209 227.213Z" fill="#8DDBE0"/>
<path d="M31.7505 252H18.5848L16.3809 236.624H33.9544L31.7505 252Z" fill="#C1D8ED"/>
</g>
<defs>
<clipPath id="clip0_937_5077">
<rect width="314" height="252" fill="white"/>
</clipPath>
</defs>
</svg>
