<svg width="328" height="245" viewBox="0 0 328 245" fill="none" xmlns="http://www.w3.org/2000/svg">
<path d="M299.784 137.873H297.863V172.719H299.784V137.873Z" fill="#F3F5FD"/>
<path d="M297.746 114.359C303.938 114.359 308.958 109.339 308.958 103.148C308.958 96.9557 303.938 91.9363 297.746 91.9363C291.555 91.9363 286.535 96.9557 286.535 103.148C286.535 109.339 291.555 114.359 297.746 114.359Z" fill="#F3F5FD"/>
<path d="M304.294 145.627C309.824 145.627 314.306 141.144 314.306 135.615C314.306 130.085 309.824 125.603 304.294 125.603C298.765 125.603 294.282 130.085 294.282 135.615C294.282 141.144 298.765 145.627 304.294 145.627Z" fill="#F3F5FD"/>
<path d="M292.362 146.304C298.266 146.304 303.051 141.518 303.051 135.615C303.051 129.711 298.266 124.926 292.362 124.926C286.459 124.926 281.673 129.711 281.673 135.615C281.673 141.518 286.459 146.304 292.362 146.304Z" fill="#F3F5FD"/>
<path d="M305.683 123.345C310.646 123.345 314.669 119.322 314.669 114.359C314.669 109.396 310.646 105.373 305.683 105.373C300.721 105.373 296.698 109.396 296.698 114.359C296.698 119.322 300.721 123.345 305.683 123.345Z" fill="#F3F5FD"/>
<path d="M298.824 128.743C303.786 128.743 307.809 124.72 307.809 119.757C307.809 114.794 303.786 110.771 298.824 110.771C293.861 110.771 289.838 114.794 289.838 119.757C289.838 124.72 293.861 128.743 298.824 128.743Z" fill="#F3F5FD"/>
<path d="M309.528 132.33C314.49 132.33 318.513 128.307 318.513 123.344C318.513 118.382 314.49 114.359 309.528 114.359C304.565 114.359 300.542 118.382 300.542 123.344C300.542 128.307 304.565 132.33 309.528 132.33Z" fill="#F3F5FD"/>
<path d="M287.712 123.025C292.674 123.025 296.697 119.002 296.697 114.039C296.697 109.077 292.674 105.054 287.712 105.054C282.749 105.054 278.726 109.077 278.726 114.039C278.726 119.002 282.749 123.025 287.712 123.025Z" fill="#F3F5FD"/>
<path d="M287.712 134.174C292.674 134.174 296.697 130.151 296.697 125.188C296.697 120.226 292.674 116.203 287.712 116.203C282.749 116.203 278.726 120.226 278.726 125.188C278.726 130.151 282.749 134.174 287.712 134.174Z" fill="#F3F5FD"/>
<path d="M159.145 149.328H157.224V184.174H159.145V149.328Z" fill="#F3F5FD"/>
<path d="M157.107 125.814C163.299 125.814 168.319 120.794 168.319 114.603C168.319 108.411 163.299 103.391 157.107 103.391C150.915 103.391 145.896 108.411 145.896 114.603C145.896 120.794 150.915 125.814 157.107 125.814Z" fill="#F3F5FD"/>
<path d="M163.655 157.082C169.185 157.082 173.667 152.599 173.667 147.07C173.667 141.54 169.185 137.058 163.655 137.058C158.126 137.058 153.644 141.54 153.644 147.07C153.644 152.599 158.126 157.082 163.655 157.082Z" fill="#F3F5FD"/>
<path d="M151.723 157.759C157.626 157.759 162.412 152.973 162.412 147.07C162.412 141.166 157.626 136.381 151.723 136.381C145.82 136.381 141.034 141.166 141.034 147.07C141.034 152.973 145.82 157.759 151.723 157.759Z" fill="#F3F5FD"/>
<path d="M165.044 134.799C170.007 134.799 174.03 130.776 174.03 125.814C174.03 120.851 170.007 116.828 165.044 116.828C160.082 116.828 156.059 120.851 156.059 125.814C156.059 130.776 160.082 134.799 165.044 134.799Z" fill="#F3F5FD"/>
<path d="M158.185 140.198C163.147 140.198 167.17 136.175 167.17 131.212C167.17 126.25 163.147 122.227 158.185 122.227C153.222 122.227 149.199 126.25 149.199 131.212C149.199 136.175 153.222 140.198 158.185 140.198Z" fill="#F3F5FD"/>
<path d="M168.888 143.785C173.851 143.785 177.874 139.762 177.874 134.8C177.874 129.837 173.851 125.814 168.888 125.814C163.926 125.814 159.903 129.837 159.903 134.8C159.903 139.762 163.926 143.785 168.888 143.785Z" fill="#F3F5FD"/>
<path d="M147.073 134.48C152.035 134.48 156.058 130.457 156.058 125.494C156.058 120.532 152.035 116.509 147.073 116.509C142.11 116.509 138.087 120.532 138.087 125.494C138.087 130.457 142.11 134.48 147.073 134.48Z" fill="#F3F5FD"/>
<path d="M147.073 145.628C152.035 145.628 156.058 141.606 156.058 136.643C156.058 131.68 152.035 127.657 147.073 127.657C142.11 127.657 138.087 131.68 138.087 136.643C138.087 141.606 142.11 145.628 147.073 145.628Z" fill="#F3F5FD"/>
<path d="M226.564 125.342H223.525V180.436H226.564V125.342Z" fill="#DEE8F5"/>
<path d="M223.341 88.1642C233.131 88.1642 241.067 80.2282 241.067 70.4387C241.067 60.6491 233.131 52.7131 223.341 52.7131C213.552 52.7131 205.616 60.6491 205.616 70.4387C205.616 80.2282 213.552 88.1642 223.341 88.1642Z" fill="#8DDBE0"/>
<path d="M233.694 137.6C242.436 137.6 249.523 130.513 249.523 121.771C249.523 113.029 242.436 105.942 233.694 105.942C224.951 105.942 217.864 113.029 217.864 121.771C217.864 130.513 224.951 137.6 233.694 137.6Z" fill="#8DDBE0"/>
<path d="M214.828 138.671C224.162 138.671 231.728 131.105 231.728 121.771C231.728 112.437 224.162 104.871 214.828 104.871C205.495 104.871 197.928 112.437 197.928 121.771C197.928 131.105 205.495 138.671 214.828 138.671Z" fill="#8DDBE0"/>
<path d="M235.89 102.371C243.736 102.371 250.097 96.0106 250.097 88.1642C250.097 80.3179 243.736 73.9572 235.89 73.9572C228.044 73.9572 221.683 80.3179 221.683 88.1642C221.683 96.0106 228.044 102.371 235.89 102.371Z" fill="#8DDBE0"/>
<path d="M225.044 110.906C232.89 110.906 239.251 104.545 239.251 96.699C239.251 88.8527 232.89 82.4919 225.044 82.4919C217.197 82.4919 210.837 88.8527 210.837 96.699C210.837 104.545 217.197 110.906 225.044 110.906Z" fill="#8DDBE0"/>
<path d="M241.967 116.579C249.814 116.579 256.174 110.218 256.174 102.371C256.174 94.5251 249.814 88.1644 241.967 88.1644C234.121 88.1644 227.76 94.5251 227.76 102.371C227.76 110.218 234.121 116.579 241.967 116.579Z" fill="#8DDBE0"/>
<path d="M207.476 101.866C215.322 101.866 221.683 95.5053 221.683 87.659C221.683 79.8126 215.322 73.4519 207.476 73.4519C199.63 73.4519 193.269 79.8126 193.269 87.659C193.269 95.5053 199.63 101.866 207.476 101.866Z" fill="#8DDBE0"/>
<path d="M207.476 119.493C215.322 119.493 221.683 113.133 221.683 105.286C221.683 97.4398 215.322 91.0791 207.476 91.0791C199.63 91.0791 193.269 97.4398 193.269 105.286C193.269 113.133 199.63 119.493 207.476 119.493Z" fill="#8DDBE0"/>
<path d="M50.4657 123.143H48.1891V164.422H50.4657V123.143Z" fill="#DEE8F5"/>
<path d="M48.0515 95.2878C55.3862 95.2878 61.3321 89.3419 61.3321 82.0072C61.3321 74.6725 55.3862 68.7266 48.0515 68.7266C40.7168 68.7266 34.7709 74.6725 34.7709 82.0072C34.7709 89.3419 40.7168 95.2878 48.0515 95.2878Z" fill="#8DDBE0"/>
<path d="M55.8082 132.328C62.3584 132.328 67.6684 127.018 67.6684 120.468C67.6684 113.918 62.3584 108.608 55.8082 108.608C49.258 108.608 43.948 113.918 43.948 120.468C43.948 127.018 49.258 132.328 55.8082 132.328Z" fill="#8DDBE0"/>
<path d="M41.6732 133.13C48.6664 133.13 54.3354 127.461 54.3354 120.467C54.3354 113.474 48.6664 107.805 41.6732 107.805C34.6801 107.805 29.011 113.474 29.011 120.467C29.011 127.461 34.6801 133.13 41.6732 133.13Z" fill="#8DDBE0"/>
<path d="M57.4539 105.933C63.3328 105.933 68.0985 101.167 68.0985 95.288C68.0985 89.4091 63.3328 84.6433 57.4539 84.6433C51.575 84.6433 46.8092 89.4091 46.8092 95.288C46.8092 101.167 51.575 105.933 57.4539 105.933Z" fill="#8DDBE0"/>
<path d="M49.3273 112.328C55.2062 112.328 59.972 107.562 59.972 101.683C59.972 95.804 55.2062 91.0382 49.3273 91.0382C43.4484 91.0382 38.6826 95.804 38.6826 101.683C38.6826 107.562 43.4484 112.328 49.3273 112.328Z" fill="#8DDBE0"/>
<path d="M62.007 116.577C67.8859 116.577 72.6516 111.812 72.6516 105.933C72.6516 100.054 67.8859 95.2881 62.007 95.2881C56.1281 95.2881 51.3623 100.054 51.3623 105.933C51.3623 111.812 56.1281 116.577 62.007 116.577Z" fill="#8DDBE0"/>
<path d="M36.1646 105.554C42.0434 105.554 46.8092 100.788 46.8092 94.9094C46.8092 89.0306 42.0434 84.2648 36.1646 84.2648C30.2857 84.2648 25.5199 89.0306 25.5199 94.9094C25.5199 100.788 30.2857 105.554 36.1646 105.554Z" fill="#8DDBE0"/>
<path d="M36.1646 118.762C42.0434 118.762 46.8092 113.996 46.8092 108.117C46.8092 102.238 42.0434 97.4722 36.1646 97.4722C30.2857 97.4722 25.5199 102.238 25.5199 108.117C25.5199 113.996 30.2857 118.762 36.1646 118.762Z" fill="#8DDBE0"/>
<path d="M210.147 191.604H326.658C333.048 174.336 313.846 165.819 307.744 177.01C311.385 170.335 312.354 161.874 304.79 156.428C296.864 152.11 287.321 157.046 285.86 164.856C287.803 154.457 278.546 144.093 268.245 141.736C241.804 135.692 235.909 162.777 238.305 167.036C231.321 154.626 202.448 169.941 210.147 191.604Z" fill="#C1D8ED"/>
<path d="M0.0561523 191.604H117.863C124.252 174.336 105.05 165.82 98.9451 177.011C102.587 170.335 103.555 161.874 95.9918 156.428C88.065 152.11 78.5225 157.046 77.0619 164.856C79.0045 154.457 69.7483 144.093 59.4469 141.736C33.0059 135.692 27.1109 162.777 29.5073 167.037C14.4825 159.158 0.0561523 169.383 0.0561523 191.604Z" fill="#C1D8ED"/>
<path d="M168.816 191.604H239.323C244.495 187.476 244.852 178.177 239.491 174.024C235.359 170.824 229.112 171.68 225.229 175.008C225.955 172.53 225.969 169.898 225.27 167.412C224.007 162.935 221.2 158.386 216.914 156.575C205.976 151.96 198.204 161.63 196.647 167.037C193.847 162.92 187.581 160.742 183.65 163.514C178.669 167.025 178.894 172.561 182.867 176.534C177.573 175.547 173.586 176.309 169.917 180.25C167.119 183.25 166.691 188.362 168.816 191.604Z" fill="#C1D8ED"/>
<path d="M174.859 191.604H103.524C99.6111 181.031 111.367 175.817 115.105 182.669C112.875 178.581 112.283 173.401 116.913 170.066C121.766 167.422 127.609 170.445 128.503 175.226C127.313 168.859 132.98 162.514 139.288 161.073C155.476 157.373 159.084 173.955 157.619 176.562C161.895 168.964 179.573 178.34 174.859 191.604Z" fill="#C1D8ED"/>
<path d="M327.944 190.545H0.0561523V245H327.944V190.545Z" fill="#F3F5FD"/>
<path d="M243.182 185.466H243.161C226.615 183.994 211.03 178.114 196.837 167.991C185.501 159.905 175.027 149.109 165.705 135.903C149.849 113.442 142.725 91.4659 142.654 91.2467C142.598 91.0714 142.614 90.881 142.699 90.7175C142.783 90.5539 142.929 90.4306 143.104 90.3746C143.279 90.3186 143.47 90.3345 143.633 90.4189C143.797 90.5032 143.92 90.6491 143.976 90.8244C144.046 91.0418 151.118 112.845 166.86 135.135C181.351 155.651 206.374 180.799 243.284 184.082C243.464 184.1 243.63 184.188 243.746 184.326C243.863 184.465 243.921 184.643 243.908 184.824C243.894 185.004 243.811 185.173 243.675 185.293C243.54 185.412 243.363 185.475 243.182 185.466H243.182Z" fill="#202123"/>
<path d="M122.21 20.9797C121.518 17.507 121.2 15.1899 121.237 12.7458C122.212 11.0392 121.956 9.07797 121.734 8.23132C122.406 8.65708 123.195 8.85916 123.989 8.80849C123.989 8.80849 122.376 2.34707 116.896 0.608443C115.888 0.216958 113.315 -0.277683 109.898 0.190214C106.992 0.588067 99.8287 2.75741 98.8052 10.8095V10.8141C98.7715 11.0812 98.0837 18.5001 96.7133 22.0596C94.8701 26.8446 92.2821 28.3313 92.3477 33.8526C92.4321 40.9541 105.508 41.8995 113.394 41.3682C121.28 40.8369 125.683 38.2478 125.741 33.13C125.804 27.3952 123.595 27.9278 122.21 20.9797Z" fill="#0A0A0A"/>
<path d="M106.301 32.597C107.217 31.048 108.198 28.0462 107.744 22.4736L115.135 21.1091C115.135 21.1091 114.302 29.8047 118.007 32.597H106.301Z" fill="#E98862"/>
<path opacity="0.15" d="M116.519 30.7899L110.385 26.0887L115.207 26.0425C115.345 27.6929 115.79 29.3031 116.519 30.7899Z" fill="black"/>
<path d="M103.556 18.6948C104.064 21.6499 105.674 24.4491 108.279 25.4056C111.119 26.5359 114.192 26.954 117.231 26.6235C125.32 25.9671 123.737 7.57416 119.9 3.99788C116.062 0.421596 104.79 2.67458 103.415 8.64862C102.702 11.7383 103.071 15.8821 103.556 18.6948Z" fill="#E98862"/>
<path d="M115.129 16.429C115.499 16.429 115.798 16.1291 115.798 15.7592C115.798 15.3893 115.499 15.0895 115.129 15.0895C114.759 15.0895 114.459 15.3893 114.459 15.7592C114.459 16.1291 114.759 16.429 115.129 16.429Z" fill="#0F1011"/>
<path d="M120.416 16.0001C120.786 16.0001 121.085 15.7003 121.085 15.3304C121.085 14.9605 120.786 14.6606 120.416 14.6606C120.046 14.6606 119.746 14.9605 119.746 15.3304C119.746 15.7003 120.046 16.0001 120.416 16.0001Z" fill="#0F1011"/>
<path d="M121.579 13.9037H121.574L119.8 13.8796C119.718 13.8761 119.641 13.8411 119.585 13.7821C119.529 13.7231 119.498 13.6446 119.498 13.5631C119.499 13.4816 119.531 13.4035 119.588 13.3451C119.645 13.2868 119.722 13.2527 119.803 13.2501H119.807L121.583 13.2737C121.666 13.2743 121.746 13.308 121.805 13.3674C121.863 13.4269 121.896 13.5072 121.896 13.5908C121.895 13.6743 121.861 13.7542 121.802 13.8129C121.742 13.8716 121.662 13.9042 121.579 13.9037Z" fill="#0F1011"/>
<path d="M113.683 14.5459C113.606 14.5456 113.532 14.5171 113.474 14.4658C113.417 14.4145 113.38 14.344 113.371 14.2675C113.362 14.191 113.382 14.1139 113.426 14.0508C113.47 13.9876 113.535 13.9428 113.61 13.9247L115.361 13.5052C115.402 13.494 115.444 13.4911 115.486 13.4967C115.528 13.5022 115.568 13.5162 115.605 13.5377C115.641 13.5592 115.673 13.5879 115.698 13.6219C115.723 13.6559 115.741 13.6946 115.751 13.7358C115.761 13.7769 115.762 13.8196 115.755 13.8613C115.748 13.9029 115.733 13.9428 115.71 13.9784C115.687 14.0141 115.658 14.0447 115.623 14.0687C115.588 14.0926 115.549 14.1092 115.507 14.1176L113.757 14.5371C113.733 14.543 113.708 14.5459 113.683 14.5459Z" fill="#0F1011"/>
<path d="M115.434 21.0369C115.434 21.0369 117.907 21.3001 119.643 20.6956C119.643 20.6956 119.628 22.3251 117.67 22.4837C115.713 22.6423 115.434 21.0369 115.434 21.0369Z" fill="#F8FCFF"/>
<path d="M109.005 11.0449C109.49 17.9699 108.728 24.9258 106.754 31.5813C106.754 31.5813 101.115 21.8584 100.243 13.7623C99.4257 6.17264 105.022 1.6972 108.8 0.857709C123.16 -2.34022 124.194 8.14996 124.194 8.14996C121.578 13.5902 107.45 13.5666 107.45 13.5666" fill="#0F1011"/>
<path d="M111.742 18.6445C111.803 19.3955 111.563 20.1399 111.075 20.714C110.587 21.2881 109.891 21.6449 109.14 21.7058C108.389 21.7667 107.645 21.5268 107.071 21.0388C106.497 20.5508 106.14 19.8548 106.079 19.1038C106.043 18.7307 106.081 18.354 106.193 17.9962C106.305 17.6384 106.488 17.3068 106.731 17.0212C106.974 16.7355 107.272 16.5016 107.607 16.3335C107.942 16.1653 108.307 16.0663 108.681 16.0423C110.706 15.9799 111.616 17.0807 111.742 18.6445Z" fill="#E98862"/>
<g opacity="0.15">
<path d="M118.1 19.4787C118.045 19.4787 117.991 19.4587 117.95 19.4226C117.908 19.3864 117.88 19.3364 117.872 19.2816C117.864 19.2269 117.875 19.171 117.905 19.1242C117.935 19.0773 117.98 19.0426 118.033 19.0264L119.396 18.6101L118.447 16.4853C118.434 16.4575 118.428 16.4276 118.427 16.3973C118.426 16.3669 118.431 16.3366 118.442 16.3082C118.453 16.2799 118.469 16.2539 118.49 16.2318C118.511 16.2097 118.536 16.1919 118.563 16.1795C118.591 16.1671 118.621 16.1603 118.651 16.1594C118.682 16.1585 118.712 16.1637 118.74 16.1745C118.769 16.1853 118.795 16.2016 118.817 16.2225C118.839 16.2433 118.857 16.2683 118.869 16.2961L119.927 18.6591C119.941 18.6891 119.948 18.7215 119.947 18.7542C119.947 18.787 119.94 18.8193 119.927 18.8492C119.913 18.879 119.893 18.9056 119.869 18.9272C119.844 18.9488 119.815 18.965 119.784 18.9746L118.169 19.4686C118.147 19.4755 118.124 19.4789 118.1 19.4787Z" fill="black"/>
</g>
<path d="M93.4822 89.7534L93.3065 89.9074L94.0613 87.2881L88.3722 87.5263C88.3722 87.5263 80.6558 96.4994 85.7496 99.0326C88.1853 100.244 89.0595 94.7996 90.7205 93.2381C90.7366 94.2769 90.8435 95.6955 91.3056 95.6987C92.5234 95.7043 93.1002 91.0757 93.4822 89.7534Z" fill="#E98862"/>
<path d="M118.833 36.2756L85.7512 87.7966L94.2366 93.2452L127.319 41.7242L118.833 36.2756Z" fill="#367CFF"/>
<path d="M156.431 219.455L146.786 218.307C147.221 214.657 147.712 210.272 147.745 209.554C147.745 209.6 147.745 209.637 147.745 209.667H157.458C157.455 209.958 157.455 210.844 156.431 219.455Z" fill="#E98862"/>
<path d="M57.6201 213.967L49.1053 209.296C49.1053 209.296 53.93 200.504 54.3551 199.724L62.8846 204.368C62.4586 205.149 57.6201 213.967 57.6201 213.967Z" fill="#E98862"/>
<path d="M133.496 152.94C136.709 174.114 140.412 196.249 142.986 217.43L159.933 215.054C156.298 193.139 153.667 170.004 150.391 148.01C143.475 127.918 126.081 83.5225 126.081 83.5225L90.8976 81.3486C90.8976 81.3486 84.0684 134.096 81.4708 150.939L49.0858 204.07L63.5551 213.205L98.7264 159.396C99.3639 158.411 99.8029 157.311 100.019 156.158C100.097 155.748 102.49 142.632 102.557 142.295C104.916 130.003 110.942 104.085 110.942 104.085C118.463 120.335 127.122 136.53 133.496 152.94Z" fill="#262626"/>
<path d="M66.1921 222.912C66.4221 223.036 66.6753 223.112 66.9357 223.133C67.1962 223.155 67.4583 223.123 67.7058 223.039C67.9532 222.955 68.1806 222.82 68.3738 222.644C68.567 222.468 68.7218 222.254 68.8285 222.016C68.9764 221.685 69.0268 221.319 68.9738 220.961C68.9208 220.603 68.7665 220.268 68.5293 219.994L60.4123 211.263C60.2546 211.095 60.0623 210.962 59.8487 210.875C59.6351 210.788 59.4051 210.748 59.1746 210.757C57.2934 210.961 55.3965 210.556 53.763 209.601C52.5197 208.805 51.5252 207.676 50.893 206.342C50.842 206.216 50.7562 206.107 50.6458 206.028C50.5354 205.95 50.4049 205.904 50.2694 205.896C50.134 205.889 49.9992 205.92 49.8808 205.986C49.7624 206.053 49.6652 206.151 49.6007 206.27L46.9573 211.127C46.8793 211.27 46.8304 211.427 46.8133 211.589C46.7963 211.752 46.8114 211.916 46.8578 212.072C46.9043 212.228 46.9812 212.374 47.084 212.5C47.1869 212.627 47.3138 212.732 47.4573 212.809L66.1921 222.912Z" fill="#C1D8ED"/>
<path d="M168.264 224.372C168.525 224.37 168.783 224.315 169.022 224.21C169.261 224.104 169.476 223.951 169.653 223.759C169.83 223.567 169.965 223.34 170.051 223.093C170.136 222.846 170.17 222.584 170.149 222.324C170.121 221.963 169.991 221.618 169.773 221.329C169.555 221.04 169.259 220.819 168.92 220.692L157.615 216.906C157.396 216.833 157.164 216.809 156.935 216.834C156.706 216.86 156.485 216.935 156.287 217.054C154.733 218.132 152.874 218.683 150.983 218.626C149.511 218.521 148.097 218.005 146.904 217.136C146.799 217.05 146.672 216.995 146.537 216.979C146.403 216.962 146.266 216.984 146.143 217.043C146.021 217.101 145.917 217.193 145.845 217.307C145.773 217.422 145.735 217.555 145.735 217.691V223.219C145.735 223.382 145.767 223.543 145.83 223.694C145.892 223.844 145.984 223.981 146.1 224.096C146.215 224.211 146.352 224.303 146.503 224.364C146.654 224.426 146.816 224.458 146.979 224.457L168.264 224.372Z" fill="#C1D8ED"/>
<path d="M145.27 87.2094C144.951 86.8907 144.273 86.5026 144.174 86.4009C144.438 86.3038 145.238 86.3916 145.734 86.2159C146.188 86.054 146.417 85.4481 145.695 84.7251C144.784 83.8144 140.115 82.2922 140.115 82.2922L136.368 87.3098C136.368 87.3098 143.865 96.0516 146.7 94.7884C150.276 93.1959 146.939 88.8796 145.27 87.2094Z" fill="#E98862"/>
<path d="M143.974 82.9837L127.836 66.4201C127.861 65.4515 127.905 64.4312 127.978 63.3419C128.823 50.5395 136.505 33.4685 121.218 31.9741C120.928 31.9445 120.463 31.9098 119.863 31.8677C119.604 34.401 103.876 33.5356 103.684 30.9269C99.2418 30.6896 95.524 31.8519 93.2983 33.8492C85.6296 40.7265 93.8811 53.607 93.3533 63.3049C92.8256 73.0028 88.2012 77.1137 88.2535 82.1095C88.3358 89.9601 126.456 90.183 128.632 85.8408C129.171 84.7789 129.412 83.5913 129.33 82.4037L136.75 90.0207L143.974 82.9837Z" fill="#1D9BF0"/>
<path d="M119.864 31.8678C119.605 34.4011 118.021 38.062 113.743 38.112C108.043 38.1772 103.877 33.5362 103.685 30.9275H103.699C109.292 31.2323 116.606 31.6398 119.864 31.8678Z" fill="#E98862"/>
<path d="M254.965 198.059C256.159 198.059 257.127 197.091 257.127 195.897C257.127 194.703 256.159 193.735 254.965 193.735C253.771 193.735 252.803 194.703 252.803 195.897C252.803 197.091 253.771 198.059 254.965 198.059Z" fill="#FD5D76"/>
<path d="M217.138 206.709C217.138 206.709 213.022 214.063 209.049 215.238C205.161 216.39 209.956 227.013 209.956 227.013H206.478C206.478 227.013 202.662 217.821 202.662 214.728C202.662 213.011 204.488 213.134 204.932 210.885C205.287 209.084 204.711 203.694 203.461 202.444" fill="#C1D8ED"/>
<path d="M247.139 202.444C247.139 202.444 243.463 212.885 242.58 215.533L244.86 225.967L242.227 226.754C242.227 226.754 238.462 217.457 238.462 214.728C238.462 211.999 239.639 203.467 239.639 203.467L247.139 202.444Z" fill="#C1D8ED"/>
<path d="M191.998 227.775H189.522C189.314 227.782 189.107 227.747 188.913 227.673C188.718 227.598 188.541 227.485 188.392 227.34C188.242 227.196 188.123 227.023 188.042 226.831C187.96 226.639 187.918 226.433 187.918 226.225C187.918 226.017 187.96 225.811 188.042 225.62C188.123 225.428 188.242 225.255 188.392 225.11C188.541 224.966 188.718 224.853 188.913 224.778C189.107 224.703 189.314 224.669 189.522 224.676H191.998C192.399 224.69 192.78 224.859 193.059 225.148C193.339 225.437 193.495 225.823 193.495 226.225C193.495 226.627 193.339 227.013 193.059 227.303C192.78 227.592 192.399 227.761 191.998 227.775Z" fill="white"/>
<path d="M246.159 227.775H243.683C243.475 227.782 243.268 227.747 243.074 227.673C242.879 227.598 242.702 227.485 242.552 227.34C242.403 227.196 242.284 227.023 242.202 226.831C242.121 226.639 242.079 226.433 242.079 226.225C242.079 226.017 242.121 225.811 242.202 225.62C242.284 225.428 242.403 225.255 242.552 225.11C242.702 224.966 242.879 224.853 243.074 224.778C243.268 224.703 243.475 224.669 243.683 224.676H246.159C246.56 224.69 246.941 224.859 247.22 225.148C247.499 225.437 247.656 225.823 247.656 226.225C247.656 226.627 247.499 227.013 247.22 227.303C246.941 227.592 246.56 227.761 246.159 227.775Z" fill="#C1D8ED"/>
<path d="M210.287 227.775H207.812C207.604 227.782 207.396 227.747 207.202 227.673C207.008 227.598 206.831 227.485 206.681 227.34C206.531 227.196 206.412 227.023 206.331 226.831C206.25 226.639 206.208 226.433 206.208 226.225C206.208 226.017 206.25 225.811 206.331 225.62C206.412 225.428 206.531 225.255 206.681 225.11C206.831 224.966 207.008 224.853 207.202 224.778C207.396 224.703 207.604 224.669 207.812 224.676H210.287C210.495 224.669 210.702 224.703 210.897 224.778C211.091 224.853 211.268 224.966 211.418 225.11C211.567 225.255 211.687 225.428 211.768 225.62C211.849 225.811 211.891 226.017 211.891 226.225C211.891 226.433 211.849 226.639 211.768 226.831C211.687 227.023 211.567 227.196 211.418 227.34C211.268 227.485 211.091 227.598 210.897 227.673C210.702 227.747 210.495 227.782 210.287 227.775Z" fill="#C1D8ED"/>
<path d="M271.16 180.911C266.899 180.911 266.303 176.317 264.495 173.636C260.375 167.528 248.168 169.777 245.805 175.116C244.492 178.085 242.013 184.194 241.023 184.927C239.215 186.265 235.343 186.349 229.099 185.822C215.103 184.639 207.915 181.479 201.365 185.897C192.896 187.145 191.762 176.079 189.114 171.656C188.143 170.037 186.3 171.409 186.255 173.296C186.141 178.027 188.586 190.434 197.66 189.476C197.37 190.123 197.137 190.715 196.955 191.256C196.33 192.773 194.932 196.899 194.932 203.467C194.932 208.915 192.348 208.529 190.225 209.053C187.247 209.789 185.404 220.257 188.346 227.013H192.169C191.013 227.019 188.786 218.645 191.984 213.776C194.539 209.884 204.808 216.69 208.852 205.05C217.402 208.208 231.499 209.952 240.289 207.932C241.911 210.101 244.492 213.631 244.76 214.487C245.168 215.79 238.167 218.768 238.167 218.768L239.786 221.415C241.109 220.721 249.129 217.067 249.129 214.969C249.129 213.027 247.501 208.436 246.295 205.298C254.969 198.966 251.925 188.499 265.159 190.602C270.968 191.527 276.703 189.386 278.932 185.597C281.136 181.842 276.478 180.911 271.16 180.911Z" fill="white"/>
<path d="M239.485 224.093C239.187 224.093 238.895 224.007 238.645 223.846C238.394 223.684 238.195 223.454 238.072 223.182L237.051 220.927C236.886 220.553 236.875 220.129 237.02 219.748C237.166 219.366 237.457 219.057 237.829 218.888C238.201 218.72 238.625 218.705 239.008 218.847C239.391 218.989 239.703 219.277 239.875 219.647L240.897 221.903C241.003 222.139 241.049 222.398 241.03 222.656C241.011 222.915 240.928 223.164 240.787 223.382C240.647 223.6 240.454 223.779 240.227 223.903C239.999 224.027 239.745 224.093 239.485 224.093Z" fill="white"/>
<path d="M252.741 170.397C256.894 170.397 257.456 176.098 255.522 179.256C253.314 182.861 243.382 185.323 238.973 183.558C234.565 181.793 237.406 177.845 243.46 174.61C249.514 171.374 249.739 170.397 252.741 170.397Z" fill="#202123"/>
<path d="M275.264 184.204C275.515 185.379 276.922 186.039 278.376 186.411C278.578 186.151 278.762 185.879 278.929 185.596C280.476 182.963 278.647 181.718 275.583 181.213C275.134 182.143 275.021 183.2 275.264 184.204Z" fill="#202123"/>
<path d="M264.18 179.256C264.718 179.256 265.154 178.82 265.154 178.282C265.154 177.744 264.718 177.308 264.18 177.308C263.642 177.308 263.206 177.744 263.206 178.282C263.206 178.82 263.642 179.256 264.18 179.256Z" fill="#202123"/>
<path d="M253.255 194.512C243.339 194.512 240.226 185.871 240.194 185.779C240.113 185.532 240.132 185.263 240.247 185.03C240.362 184.797 240.564 184.619 240.81 184.534C241.055 184.448 241.324 184.463 241.559 184.574C241.794 184.685 241.976 184.885 242.065 185.129C242.184 185.468 245.107 193.424 254.867 192.45C254.997 192.434 255.13 192.444 255.257 192.481C255.383 192.517 255.501 192.578 255.604 192.66C255.707 192.743 255.792 192.845 255.855 192.961C255.918 193.076 255.957 193.203 255.97 193.335C255.983 193.466 255.97 193.598 255.931 193.724C255.893 193.85 255.829 193.967 255.745 194.068C255.66 194.169 255.556 194.252 255.439 194.313C255.322 194.373 255.195 194.41 255.063 194.42C254.437 194.482 253.834 194.512 253.255 194.512Z" fill="#202123"/>
<path d="M237.633 208.41C229.922 209.459 219.52 208.276 211.857 206.038C212.21 204.743 213.271 203.111 216.288 202.442C221.662 201.254 221.041 196.637 226.414 196.637C230.392 196.637 229.78 200.337 232.869 202.442C235.704 204.375 237.347 206.644 237.633 208.41Z" fill="#202123"/>
<path d="M194.643 183.323C194.021 184.026 193.255 184.586 192.397 184.965C191.538 185.345 190.608 185.534 189.67 185.521C187.033 181.704 186.189 176.128 186.256 173.297C186.3 171.412 188.145 170.038 189.115 171.657C190.806 174.481 191.879 180.017 194.643 183.323Z" fill="#202123"/>
<path d="M223.313 188.222C221.991 191.362 218.803 191.509 217.14 189.841C215.477 188.173 212.899 189.56 210.289 186.95C209.377 186.075 208.815 184.898 208.709 183.639C212.673 183.485 217.366 184.447 223.614 185.239C223.791 186.242 223.687 187.274 223.313 188.222Z" fill="#202123"/>
<path d="M202.663 198.058C202.663 200.399 200.215 200.553 198.663 202.101C197.574 203.191 196.703 204.477 194.877 204.743C194.913 204.359 194.933 203.935 194.933 203.468C194.892 200.092 195.319 196.727 196.2 193.469C197.158 193.061 198.065 193.006 198.639 193.734C201.027 196.755 202.663 195.896 202.663 198.058Z" fill="#202123"/>
</svg>
