<svg width="324" height="245" viewBox="0 0 324 245" fill="none" xmlns="http://www.w3.org/2000/svg">
<g opacity="0.7">
<path d="M254.016 2.13391H207.834V56.6529H254.016V2.13391Z" fill="#F4F4F4"/>
<path d="M254.016 56.653H255.514V2.13396H254.016V56.653Z" fill="#F4F4F4"/>
<path opacity="0.05" d="M254.016 56.653H255.514V2.13396H254.016V56.653Z" fill="#333333"/>
<path opacity="0.05" d="M245.603 13.0392H216.247V45.748H245.603V13.0392Z" fill="#333333"/>
<path opacity="0.03" d="M245.603 13.0392H244.073V45.748H245.603V13.0392Z" fill="#333333"/>
<path d="M291.785 71.3748H254.016V109.335H291.785V71.3748Z" fill="#F4F4F4"/>
<path opacity="0.05" d="M284.905 78.2897H260.896V102.42H284.905V78.2897Z" fill="#333333"/>
<path d="M291.785 109.335H293.283V71.3747H291.785V109.335Z" fill="#F4F4F4"/>
<path opacity="0.05" d="M291.785 109.335H293.283V71.3747H291.785V109.335Z" fill="#333333"/>
<path opacity="0.03" d="M284.905 78.2897H283.375V102.42H284.905V78.2897Z" fill="#333333"/>
</g>
<g opacity="0.7">
<path d="M159.459 0H50.7341V108.28H159.459V0Z" fill="#F4F4F4"/>
<path d="M50.7341 0H49.4879V108.28H50.7341V0Z" fill="#F4F4F4"/>
<path opacity="0.05" d="M50.7341 0H49.4879V108.28H50.7341V0Z" fill="#333333"/>
<path opacity="0.05" d="M77.0732 74.6139V46.2844H100.375V62.7432H136.468V91.8859H151.809V108.28H136.468H133.513H55.9642V74.6139H77.0732Z" fill="#333333"/>
<path opacity="0.34" d="M97.3836 49.3602H80.4153V52.4361H97.3836V49.3602Z" fill="#FFFFFA"/>
<path opacity="0.34" d="M97.3836 55.7344H80.4153V58.8103H97.3836V55.7344Z" fill="#FFFFFA"/>
<path opacity="0.34" d="M97.3836 62.1083H80.4153V65.1842H97.3836V62.1083Z" fill="#FFFFFA"/>
<path opacity="0.34" d="M62.1007 77.5997H58.9733V80.6756H62.1007V77.5997Z" fill="#FFFFFA"/>
<path opacity="0.34" d="M62.1007 83.9739H58.9733V87.0498H62.1007V83.9739Z" fill="#FFFFFA"/>
<path opacity="0.34" d="M62.1007 90.3478H58.9733V93.4237H62.1007V90.3478Z" fill="#FFFFFA"/>
<path opacity="0.34" d="M67.8866 77.5997H64.7592V80.6756H67.8866V77.5997Z" fill="#FFFFFA"/>
<path opacity="0.34" d="M67.8866 83.9739H64.7592V87.0498H67.8866V83.9739Z" fill="#FFFFFA"/>
<path opacity="0.34" d="M67.8866 90.3478H64.7592V93.4237H67.8866V90.3478Z" fill="#FFFFFA"/>
<path opacity="0.34" d="M73.5161 77.5997H70.3887V80.6756H73.5161V77.5997Z" fill="#FFFFFA"/>
<path opacity="0.34" d="M73.5161 83.9739H70.3887V87.0498H73.5161V83.9739Z" fill="#FFFFFA"/>
<path opacity="0.34" d="M73.5161 90.3478H70.3887V93.4237H73.5161V90.3478Z" fill="#FFFFFA"/>
<path d="M50.7341 53.5326H72.6113V0H74.4206V53.5326H133.513V0H135.323V53.5326H159.459V55.3345H135.323V108.28H133.513V55.3345H74.4206V108.28H72.6113V55.3345H50.7341V53.5326Z" fill="white"/>
<path d="M163.79 108.149H46.403V111.75H163.79V108.149Z" fill="#F4F4F4"/>
<path opacity="0.1" d="M163.79 108.149H46.403V111.75H163.79V108.149Z" fill="#333333"/>
<path opacity="0.1" d="M46.4029 108.149H44.7083V111.75H46.4029V108.149Z" fill="#333333"/>
<path opacity="0.1" d="M46.4029 108.149H44.7083V111.75H46.4029V108.149Z" fill="#333333"/>
</g>
<path d="M113.485 13.4454H240.744C242.577 13.4454 244.335 14.1707 245.631 15.4616C246.928 16.7525 247.656 18.5034 247.656 20.3291V172.126C247.656 173.992 246.912 175.781 245.587 177.1C244.263 178.419 242.467 179.16 240.594 179.16H113.635C111.762 179.16 109.966 178.419 108.642 177.1C107.317 175.781 106.573 173.992 106.573 172.126V20.3283C106.573 18.5028 107.302 16.7522 108.598 15.4614C109.894 14.1707 111.652 13.4455 113.485 13.4454Z" fill="white"/>
<path d="M240.594 179.427H113.635C111.691 179.427 109.827 178.657 108.452 177.288C107.077 175.919 106.305 174.062 106.305 172.126V20.0609C106.305 18.2354 107.033 16.4848 108.329 15.194C109.626 13.9032 111.383 13.1781 113.216 13.1781H241.012C242.845 13.1781 244.603 13.9033 245.9 15.1942C247.196 16.4851 247.924 18.2359 247.924 20.0615V172.126C247.924 174.062 247.152 175.919 245.777 177.288C244.402 178.657 242.538 179.427 240.594 179.427ZM106.842 20.3167V172.126C106.842 173.014 107.017 173.894 107.359 174.715C107.7 175.536 108.201 176.282 108.831 176.91C109.462 177.539 110.211 178.037 111.035 178.377C111.86 178.717 112.743 178.892 113.635 178.892H240.594C242.395 178.892 244.123 178.179 245.398 176.91C246.672 175.641 247.387 173.92 247.387 172.126V20.2499C247.387 19.3913 247.217 18.5412 246.887 17.748C246.557 16.9548 246.074 16.2341 245.464 15.6271C244.854 15.02 244.131 14.5385 243.334 14.2101C242.538 13.8816 241.684 13.7126 240.822 13.7127H113.473C111.715 13.7127 110.028 14.4085 108.784 15.647C107.541 16.8854 106.842 18.5652 106.842 20.3167Z" fill="#333333"/>
<path d="M133.941 46.3979H118.519C117.66 46.3969 116.836 46.0565 116.228 45.4513C115.62 44.8461 115.278 44.0256 115.277 43.1697V27.8103C115.278 26.9543 115.62 26.1336 116.228 25.5283C116.835 24.923 117.659 24.5825 118.519 24.5815H133.941C134.801 24.5825 135.625 24.9229 136.233 25.5282C136.84 26.1335 137.182 26.9543 137.183 27.8103V43.1697C137.182 44.0256 136.84 44.8462 136.232 45.4514C135.625 46.0566 134.801 46.397 133.941 46.3979ZM118.519 25.1156C117.802 25.1165 117.114 25.4006 116.607 25.9057C116.1 26.4107 115.815 27.0955 115.814 27.8098V43.1697C115.815 43.8839 116.1 44.5687 116.607 45.0738C117.114 45.5789 117.802 45.863 118.519 45.8638H133.941C134.658 45.8631 135.346 45.579 135.853 45.0739C136.36 44.5688 136.646 43.884 136.647 43.1697V27.8103C136.646 27.096 136.36 26.4112 135.853 25.9061C135.346 25.401 134.658 25.1169 133.941 25.1162L118.519 25.1156Z" fill="#333333"/>
<path d="M133.941 76.8274H118.519C117.659 76.8264 116.835 76.4859 116.228 75.8806C115.62 75.2753 115.278 74.4546 115.277 73.5986V58.2395C115.278 57.3835 115.62 56.5627 116.228 55.9574C116.835 55.352 117.659 55.0115 118.519 55.0105H133.941C134.801 55.0115 135.625 55.352 136.233 55.9574C136.84 56.5627 137.182 57.3835 137.183 58.2395V73.5986C137.182 74.4547 136.84 75.2754 136.233 75.8807C135.625 76.486 134.801 76.8265 133.941 76.8274ZM118.519 55.5459C117.802 55.5468 117.114 55.8309 116.607 56.336C116.1 56.8412 115.815 57.526 115.814 58.2403V73.5994C115.815 74.3137 116.1 74.9985 116.607 75.5036C117.114 76.0087 117.802 76.2928 118.519 76.2936H133.941C134.658 76.2928 135.346 76.0087 135.853 75.5036C136.36 74.9986 136.646 74.3137 136.647 73.5994V58.2395C136.646 57.5252 136.36 56.8403 135.853 56.3352C135.346 55.8301 134.658 55.546 133.941 55.5451L118.519 55.5459Z" fill="#333333"/>
<path d="M133.941 107.257H118.519C117.659 107.256 116.835 106.915 116.228 106.31C115.62 105.705 115.278 104.884 115.277 104.028V88.6691C115.278 87.8131 115.62 86.9924 116.228 86.3871C116.835 85.7818 117.659 85.4413 118.519 85.4403H133.941C134.801 85.4412 135.625 85.7817 136.233 86.387C136.84 86.9923 137.182 87.813 137.183 88.6691V104.028C137.182 104.884 136.84 105.705 136.233 106.31C135.625 106.916 134.801 107.256 133.941 107.257ZM118.519 85.9749C117.802 85.9757 117.114 86.2598 116.607 86.7649C116.1 87.27 115.815 87.9548 115.814 88.6691V104.028C115.815 104.742 116.1 105.427 116.607 105.932C117.114 106.437 117.802 106.722 118.519 106.722H133.941C134.658 106.722 135.346 106.437 135.853 105.932C136.36 105.427 136.646 104.742 136.647 104.028V88.6691C136.646 87.9548 136.36 87.2699 135.853 86.7649C135.346 86.2598 134.658 85.9757 133.941 85.9749H118.519Z" fill="#333333"/>
<path d="M133.941 137.268H118.519C117.659 137.267 116.835 136.927 116.228 136.322C115.62 135.716 115.278 134.896 115.277 134.04V118.68C115.278 117.824 115.62 117.004 116.228 116.398C116.835 115.793 117.659 115.452 118.519 115.451H133.941C134.801 115.452 135.625 115.793 136.233 116.398C136.84 117.004 137.182 117.824 137.183 118.68V134.04C137.182 134.896 136.84 135.716 136.233 136.322C135.625 136.927 134.801 137.267 133.941 137.268ZM118.519 115.986C117.802 115.987 117.114 116.271 116.607 116.776C116.1 117.281 115.814 117.966 115.814 118.68V134.04C115.815 134.754 116.1 135.439 116.607 135.944C117.114 136.449 117.802 136.733 118.519 136.734H133.941C134.658 136.733 135.346 136.449 135.853 135.944C136.36 135.439 136.646 134.754 136.647 134.04V118.68C136.646 117.966 136.361 117.281 135.853 116.776C135.346 116.271 134.658 115.987 133.941 115.986H118.519Z" fill="#333333"/>
<path d="M133.941 167.279H118.519C117.659 167.278 116.835 166.938 116.228 166.333C115.62 165.727 115.278 164.906 115.277 164.05V148.692C115.278 147.836 115.62 147.015 116.228 146.409C116.835 145.804 117.659 145.464 118.519 145.463H133.941C134.801 145.464 135.625 145.804 136.233 146.409C136.84 147.015 137.182 147.835 137.183 148.692V164.051C137.182 164.907 136.84 165.727 136.233 166.333C135.625 166.938 134.801 167.278 133.941 167.279ZM118.519 145.997C117.802 145.998 117.114 146.282 116.607 146.787C116.1 147.292 115.815 147.977 115.814 148.691V164.05C115.815 164.765 116.1 165.45 116.607 165.955C117.114 166.46 117.802 166.744 118.519 166.745H133.941C134.658 166.744 135.346 166.46 135.853 165.955C136.36 165.45 136.646 164.765 136.647 164.05V148.692C136.646 147.977 136.36 147.292 135.853 146.787C135.346 146.282 134.658 145.998 133.941 145.997L118.519 145.997Z" fill="#333333"/>
<path d="M123.487 72.0638C123.209 72.064 122.943 71.957 122.743 71.7652L118.248 67.4616C118.146 67.3643 118.065 67.248 118.008 67.1194C117.952 66.9908 117.921 66.8523 117.918 66.7119C117.915 66.5715 117.94 66.4319 117.992 66.3012C118.043 66.1704 118.12 66.051 118.218 65.9498C118.315 65.8485 118.432 65.7674 118.561 65.7111C118.69 65.6549 118.829 65.6245 118.97 65.6217C119.111 65.6189 119.251 65.6438 119.383 65.6949C119.514 65.7461 119.634 65.8225 119.736 65.9198L123.469 69.494L132.825 60.0902C133.026 59.8921 133.298 59.781 133.581 59.7811C133.864 59.7812 134.135 59.8925 134.336 60.0908C134.537 60.289 134.651 60.5582 134.654 60.8399C134.657 61.1216 134.548 61.393 134.351 61.5951L124.249 71.746C124.15 71.8467 124.031 71.9267 123.9 71.9812C123.769 72.0358 123.629 72.0639 123.487 72.0638Z" fill="#0CBC8B"/>
<path d="M123.487 102.493C123.209 102.493 122.943 102.387 122.743 102.195L118.248 97.8913C118.042 97.6948 117.924 97.4251 117.918 97.1415C117.913 96.858 118.02 96.5839 118.218 96.3794C118.415 96.1749 118.686 96.0569 118.97 96.0513C119.255 96.0457 119.53 96.1529 119.736 96.3495L123.469 99.9225L132.825 90.5195C133.026 90.3181 133.298 90.2042 133.583 90.2029C133.868 90.2016 134.141 90.313 134.344 90.5126C134.546 90.7122 134.66 90.9836 134.662 91.2672C134.663 91.5508 134.551 91.8233 134.351 92.0247L124.249 102.176C124.15 102.276 124.031 102.356 123.9 102.411C123.769 102.465 123.629 102.493 123.487 102.493Z" fill="#0CBC8B"/>
<path opacity="0.5" d="M236.06 30.7339H145.612C145.199 30.7339 144.863 31.0679 144.863 31.4799C144.863 31.892 145.199 32.226 145.612 32.226H236.06C236.474 32.226 236.81 31.892 236.81 31.4799C236.81 31.0679 236.474 30.7339 236.06 30.7339Z" fill="#262626"/>
<path opacity="0.5" d="M203.852 38.7531H145.612C145.199 38.7531 144.863 39.0871 144.863 39.4991C144.863 39.9111 145.199 40.2451 145.612 40.2451H203.852C204.266 40.2451 204.601 39.9111 204.601 39.4991C204.601 39.0871 204.266 38.7531 203.852 38.7531Z" fill="#262626"/>
<path opacity="0.5" d="M236.06 61.1633H145.612C145.199 61.1633 144.863 61.4973 144.863 61.9094C144.863 62.3214 145.199 62.6554 145.612 62.6554H236.06C236.474 62.6554 236.81 62.3214 236.81 61.9094C236.81 61.4973 236.474 61.1633 236.06 61.1633Z" fill="#262626"/>
<path opacity="0.5" d="M203.852 69.1825H145.612C145.199 69.1825 144.863 69.5165 144.863 69.9285C144.863 70.3406 145.199 70.6746 145.612 70.6746H203.852C204.266 70.6746 204.601 70.3406 204.601 69.9285C204.601 69.5165 204.266 69.1825 203.852 69.1825Z" fill="#262626"/>
<path opacity="0.5" d="M236.06 91.5928H145.612C145.199 91.5928 144.863 91.9268 144.863 92.3388C144.863 92.7508 145.199 93.0849 145.612 93.0849H236.06C236.474 93.0849 236.81 92.7508 236.81 92.3388C236.81 91.9268 236.474 91.5928 236.06 91.5928Z" fill="#262626"/>
<path opacity="0.5" d="M203.852 99.6119H145.612C145.199 99.6119 144.863 99.946 144.863 100.358C144.863 100.77 145.199 101.104 145.612 101.104H203.852C204.266 101.104 204.601 100.77 204.601 100.358C204.601 99.946 204.266 99.6119 203.852 99.6119Z" fill="#262626"/>
<path opacity="0.5" d="M236.06 121.604H145.612C145.199 121.604 144.863 121.938 144.863 122.35C144.863 122.762 145.199 123.096 145.612 123.096H236.06C236.474 123.096 236.81 122.762 236.81 122.35C236.81 121.938 236.474 121.604 236.06 121.604Z" fill="#262626"/>
<path opacity="0.5" d="M203.852 129.623H145.612C145.199 129.623 144.863 129.957 144.863 130.369C144.863 130.781 145.199 131.116 145.612 131.116H203.852C204.266 131.116 204.601 130.781 204.601 130.369C204.601 129.957 204.266 129.623 203.852 129.623Z" fill="#262626"/>
<path opacity="0.5" d="M236.06 151.615H145.612C145.199 151.615 144.863 151.949 144.863 152.361C144.863 152.773 145.199 153.107 145.612 153.107H236.06C236.474 153.107 236.81 152.773 236.81 152.361C236.81 151.949 236.474 151.615 236.06 151.615Z" fill="#262626"/>
<path opacity="0.5" d="M203.852 159.635H145.612C145.199 159.635 144.863 159.969 144.863 160.381C144.863 160.793 145.199 161.127 145.612 161.127H203.852C204.266 161.127 204.601 160.793 204.601 160.381C204.601 159.969 204.266 159.635 203.852 159.635Z" fill="#262626"/>
<path d="M122.712 40.9581C122.79 40.7666 122.929 40.6058 123.108 40.5002C123.286 40.3945 123.494 40.3499 123.701 40.373C123.701 40.3564 123.686 40.3163 123.715 40.3166L123.044 39.8942C122.844 39.774 122.693 39.5856 122.621 39.3637C122.55 39.1418 122.561 38.9014 122.653 38.6871C122.751 38.4782 122.923 38.3131 123.136 38.2236C123.35 38.1342 123.589 38.1268 123.807 38.203C123.805 38.1939 123.81 38.1848 123.811 38.1763L123.535 38.0028C123.347 37.8887 123.204 37.7133 123.13 37.5062C123.056 37.2991 123.057 37.073 123.131 36.8662C123.181 36.7375 123.258 36.6214 123.358 36.5262C123.458 36.431 123.578 36.3591 123.709 36.3156C123.841 36.2721 123.98 36.2582 124.117 36.2748C124.255 36.2915 124.387 36.3382 124.503 36.4118L125.141 36.8127C125.142 36.809 125.141 36.805 125.142 36.8015C125.144 36.798 125.151 36.7964 125.154 36.7924C125.005 36.6433 124.911 36.448 124.887 36.2386C124.863 36.0291 124.912 35.8179 125.025 35.6395C125.286 35.1602 125.958 35.2158 126.37 35.4749L127.604 36.3915C127.795 36.5329 127.947 36.719 128.048 36.9333C128.148 37.1475 128.194 37.3832 128.181 37.6195C128.072 39.6638 127.656 44.9971 126.342 44.1684L123.105 42.1332C122.917 42.0087 122.777 41.8256 122.706 41.6128C122.635 41.3999 122.637 41.1696 122.712 40.9581Z" fill="#E98862"/>
<path d="M123.487 41.3296C123.209 41.3298 122.943 41.2228 122.743 41.031L118.248 36.7274C118.144 36.6305 118.062 36.5142 118.004 36.3851C117.946 36.2561 117.914 36.117 117.911 35.9758C117.907 35.8345 117.932 35.694 117.984 35.5623C118.035 35.4307 118.112 35.3104 118.21 35.2086C118.309 35.1068 118.426 35.0253 118.556 34.969C118.686 34.9127 118.826 34.8826 118.968 34.8805C119.11 34.8784 119.251 34.9043 119.383 34.9567C119.514 35.0091 119.634 35.087 119.736 35.1859L123.469 38.7592L132.825 29.3562C132.925 29.2565 133.043 29.1772 133.173 29.1228C133.303 29.0685 133.442 29.0402 133.583 29.0396C133.724 29.0389 133.864 29.0659 133.994 29.1191C134.125 29.1722 134.243 29.2504 134.344 29.3493C134.444 29.4481 134.523 29.5656 134.578 29.6951C134.633 29.8246 134.661 29.9635 134.662 30.1039C134.662 30.2443 134.635 30.3835 134.582 30.5135C134.528 30.6434 134.45 30.7617 134.351 30.8614L124.249 41.0123C124.15 41.1129 124.031 41.1928 123.9 41.2472C123.769 41.3017 123.629 41.3297 123.487 41.3296Z" fill="#0CBC8B"/>
<path d="M120.393 38.7196C120.416 38.5639 120.47 38.4144 120.553 38.2802C120.635 38.146 120.744 38.03 120.873 37.9391C121.002 37.8483 121.148 37.7846 121.303 37.7519C121.457 37.7192 121.617 37.7182 121.772 37.749C122.069 37.819 122.329 37.9989 122.499 38.2523C122.669 38.5057 122.735 38.8138 122.686 39.1144L122.654 40.7559C122.647 41.1031 122.768 41.4408 122.994 41.7053C123.22 41.9697 123.535 42.1426 123.881 42.1913C124.219 42.2391 124.563 42.1644 124.851 41.9808C125.139 41.7972 125.351 41.5169 125.449 41.1908L126.29 38.3887L125.375 37.0289C125.695 36.5157 125.964 35.1885 126.518 35.5838C126.987 35.8741 128.051 36.5761 128.343 37.2411C128.349 37.2438 128.894 42.9499 128.597 43.4258L125.973 50.4174C124.714 52.4361 118.638 50.8739 118.638 50.8739L120.393 38.7196Z" fill="#E98862"/>
<path d="M123.469 38.7592L132.825 29.3562C132.924 29.2565 133.042 29.1772 133.172 29.1228C133.303 29.0685 133.442 29.0402 133.583 29.0396C133.724 29.0389 133.864 29.0659 133.994 29.1191C134.125 29.1722 134.243 29.2504 134.344 29.3493C134.444 29.4481 134.523 29.5656 134.578 29.6951C134.632 29.8246 134.661 29.9635 134.662 30.1039C134.662 30.2443 134.635 30.3835 134.582 30.5135C134.528 30.6434 134.45 30.7617 134.351 30.8614L124.249 41.0123" fill="#0CBC8B"/>
<path d="M75.714 87.3576L113.582 84.1839C116.37 84.2569 118.798 81.9482 119.82 79.3575L129.742 48.3881L116.763 43.3071L108.006 69.8353L74.7021 72.1566L75.714 87.3576Z" fill="#1D9BF0"/>
<path d="M53.7265 233.17C53.7265 233.17 54.9384 239.425 60.8198 239.775C66.7013 240.124 65.4259 244.79 65.4259 244.79H42.9502V233.606L53.7265 233.17Z" fill="#1D9BF0"/>
<path d="M46.7943 119.049C46.7943 119.049 46.8649 117.169 46.8498 121.434C46.7943 137.347 46.517 155.523 45.8396 166.159C44.7507 183.257 41.9585 237.162 41.9585 237.162L56.7276 237.039L71.042 118.403L46.7943 119.049Z" fill="#262626"/>
<path d="M63.4725 137.814C63.4725 137.814 64.0845 149.361 64.1972 152.072C64.4597 158.342 64.551 164.833 64.551 172.193L66.8796 152.898C66.8796 152.898 65.1761 146.852 63.4725 137.814Z" fill="#0A0A0A"/>
<path d="M80.0195 233.17C80.0195 233.17 81.2313 239.425 87.1128 239.775C92.9943 240.124 91.7188 244.79 91.7188 244.79H69.2432V233.606L80.0195 233.17Z" fill="#1D9BF0"/>
<path d="M87.1705 120.285C87.1705 120.285 88.4786 174.67 88.287 177.328L82.7947 236.75L68.2696 237.017L69.6852 175.178C69.6852 175.178 68.6867 158.119 64.5482 142.279C62.4308 134.15 61.1565 125.825 60.7452 117.437L87.1705 120.285Z" fill="#262626"/>
<path d="M46.6333 119.047L46.585 119.05C46.585 119.05 46.6201 118.122 46.6333 119.047Z" fill="#333333"/>
<path d="M89.2495 91.7016C88.9451 95.2653 87.4633 115.895 87.1704 120.285H46.8104C46.5825 116.326 45.5585 99.0137 44.694 91.2718C43.8687 83.884 42.2494 80.1853 43.4363 78.0011C45.3757 74.4315 50.6756 72.369 54.2894 71.8817C56.4962 71.5842 75.3095 71.3704 75.3546 71.3704C76.8324 71.3704 85.4374 72.0621 87.3395 73.5211C90.7813 76.161 89.7815 85.487 89.2495 91.7016Z" fill="#1D9BF0"/>
<path d="M89.807 86.2815C89.8413 86.2815 89.8743 86.2685 89.8992 86.2451C89.9242 86.2217 89.9392 86.1896 89.9412 86.1556L90.2668 81.031C90.2688 80.9957 90.2567 80.9609 90.233 80.9345C90.2094 80.908 90.1761 80.892 90.1406 80.8899C90.1052 80.8883 90.0705 80.9005 90.0441 80.924C90.0176 80.9475 90.0014 80.9803 89.9989 81.0155L89.6733 86.14C89.6713 86.1754 89.6834 86.2102 89.7071 86.2366C89.7307 86.2631 89.764 86.2791 89.7995 86.2812L89.807 86.2815Z" fill="#0C0C0C"/>
<path d="M38.0847 120.052C36.8977 120.051 35.7284 119.765 34.6763 119.218C33.6242 118.671 32.7203 117.879 32.0417 116.909C31.3631 115.939 30.9297 114.82 30.7785 113.648C30.6273 112.475 30.7628 111.284 31.1733 110.175C31.5891 109.049 41.3643 83.2689 43.2246 78.4922L57.004 84.0521C55.9573 86.7377 52.1666 96.9178 49.1208 105.119L54.1807 104.571L55.7734 119.162L38.8816 120.008C38.6169 120.037 38.3509 120.052 38.0847 120.052Z" fill="#1D9BF0"/>
<path d="M80.163 70.8828C80.1179 70.8769 78.8798 75.5168 69.2181 74.7946C62.5296 74.2955 60.8977 69.7615 60.7452 69.7615C61.4664 69.6088 62.6377 69.4503 62.9579 69.2803C64.0112 68.7166 64.7785 68.0307 65.1645 66.5581C65.4664 65.4068 65.6208 60.9741 65.6208 58.7501L75.9132 61.0535C75.7696 63.5621 74.7655 69.3782 78.2847 70.4076C78.8701 70.5776 79.5009 70.7339 80.163 70.8828Z" fill="#E98862"/>
<path d="M75.5568 65.9852C71.4994 66.3041 66.287 64.5979 65.2969 59.2066L64.4036 54.3417C63.4135 48.9504 65.4541 44.0619 70.5514 43.1336C75.6483 42.2052 80.2608 45.882 81.2507 51.2733L81.6463 53.427C82.0261 55.4959 82.7961 65.4164 75.5568 65.9852Z" fill="#E98862"/>
<path d="M79.3189 61.0353C78.5907 57.3908 78.2566 54.9592 78.2955 52.3941C79.3213 50.6032 79.0516 48.5449 78.8183 47.6564C79.5248 48.1032 80.3555 48.3153 81.1907 48.2621C81.1907 48.2621 79.4942 41.4811 73.7278 39.6565C72.6674 39.2456 69.96 38.7265 66.3653 39.2176C63.3079 39.6351 55.7712 41.9117 54.6944 50.362V50.3669C54.659 50.6473 53.9353 58.4331 52.4935 62.1686C50.5543 67.1902 47.8314 68.7505 47.9003 74.5449C47.9892 81.9976 61.7466 82.9898 70.0435 82.4322C78.3403 81.8746 82.9734 79.1575 83.0341 73.7865C83.1001 67.7682 80.7763 68.3271 79.3189 61.0353Z" fill="#0A0A0A"/>
<path d="M45.9511 91.4205L45.6829 91.4297L46.6745 120.289L46.9428 120.28L45.9511 91.4205Z" fill="#0C0C0C"/>
<path d="M361.442 244.977H-8.00796C-8.08089 244.977 -8.15084 244.957 -8.20241 244.922C-8.25399 244.887 -8.28296 244.84 -8.28296 244.79C-8.28296 244.74 -8.25399 244.693 -8.20241 244.658C-8.15084 244.622 -8.08089 244.603 -8.00796 244.603H361.442C361.515 244.603 361.585 244.622 361.637 244.658C361.688 244.693 361.717 244.74 361.717 244.79C361.717 244.84 361.688 244.887 361.637 244.922C361.585 244.957 361.515 244.977 361.442 244.977Z" fill="#333333"/>
<path d="M261.119 209.945C261.047 209.945 260.979 209.917 260.929 209.867C260.551 209.49 259.934 202.581 258.274 182.007C257.595 173.589 256.953 165.638 256.485 160.806C256.451 160.461 256.317 160.421 256.273 160.408C255.632 160.215 253.682 161.746 252.594 163.087C252.572 163.114 252.544 163.137 252.513 163.153C252.482 163.17 252.448 163.181 252.413 163.184C252.378 163.188 252.343 163.185 252.309 163.175C252.275 163.165 252.244 163.149 252.216 163.126C252.189 163.104 252.166 163.077 252.149 163.046C252.132 163.015 252.122 162.982 252.118 162.947C252.114 162.912 252.118 162.876 252.128 162.843C252.138 162.809 252.154 162.778 252.176 162.75C252.896 161.864 255.242 159.54 256.427 159.896C256.666 159.967 256.964 160.174 257.019 160.755C257.488 165.591 258.129 173.544 258.809 181.965C259.818 194.466 260.961 208.63 261.337 209.522C261.365 209.562 261.383 209.609 261.386 209.658C261.39 209.707 261.38 209.756 261.358 209.8C261.335 209.844 261.301 209.88 261.259 209.906C261.216 209.932 261.168 209.945 261.119 209.945Z" fill="#494949"/>
<path d="M255.795 169.673C260.249 166.118 261.725 160.584 259.092 157.312C256.459 154.041 250.714 154.272 246.261 157.827C241.807 161.383 240.331 166.917 242.963 170.188C245.596 173.459 251.341 173.229 255.795 169.673Z" fill="#0CBC8B"/>
<path opacity="0.2" d="M255.795 169.673C260.249 166.118 261.725 160.584 259.092 157.312C256.459 154.041 250.714 154.272 246.261 157.827C241.807 161.383 240.331 166.917 242.963 170.188C245.596 173.459 251.341 173.229 255.795 169.673Z" fill="white"/>
<path d="M244.212 171.02C244.187 171.02 244.162 171.013 244.14 170.999C244.119 170.985 244.102 170.966 244.091 170.943C244.08 170.92 244.076 170.894 244.079 170.869C244.082 170.844 244.093 170.82 244.109 170.801L256.802 155.557C256.813 155.543 256.827 155.531 256.843 155.523C256.858 155.514 256.875 155.509 256.893 155.507C256.911 155.506 256.929 155.507 256.946 155.513C256.963 155.518 256.979 155.526 256.992 155.538C257.006 155.549 257.017 155.563 257.026 155.579C257.034 155.594 257.039 155.612 257.04 155.629C257.042 155.647 257.04 155.665 257.034 155.682C257.029 155.699 257.02 155.714 257.008 155.728L244.315 170.972C244.303 170.987 244.287 170.999 244.269 171.007C244.251 171.016 244.232 171.02 244.212 171.02Z" fill="white"/>
<path d="M263.887 206.677C263.844 206.677 263.802 206.667 263.764 206.647C263.726 206.628 263.693 206.6 263.668 206.565C263.644 206.53 263.628 206.49 263.622 206.448C263.616 206.405 263.62 206.362 263.634 206.322L268.401 192.666C268.542 192.265 268.781 191.905 269.097 191.62C269.413 191.335 269.796 191.133 270.211 191.033C270.626 190.933 271.059 190.939 271.471 191.049C271.883 191.16 272.261 191.371 272.569 191.664L275.09 194.063C275.141 194.112 275.171 194.18 275.173 194.251C275.175 194.322 275.148 194.39 275.099 194.441C275.049 194.493 274.982 194.522 274.911 194.524C274.839 194.526 274.771 194.499 274.719 194.45L272.199 192.052C271.955 191.82 271.657 191.654 271.332 191.567C271.006 191.48 270.664 191.475 270.337 191.554C270.01 191.633 269.707 191.792 269.458 192.017C269.208 192.242 269.019 192.526 268.908 192.843L264.141 206.498C264.122 206.55 264.088 206.596 264.043 206.628C263.997 206.66 263.943 206.677 263.887 206.677Z" fill="#494949"/>
<path d="M282.133 201.624C285.433 199.022 285.237 193.299 281.695 188.842C278.152 184.384 272.604 182.88 269.304 185.482C266.003 188.084 266.199 193.807 269.742 198.264C273.284 202.721 278.832 204.225 282.133 201.624Z" fill="#0CBC8B"/>
<path d="M258.953 209.074C258.892 209.074 258.834 209.054 258.786 209.017C258.739 208.98 258.706 208.928 258.692 208.869L250.691 175.551C250.636 175.324 250.52 175.116 250.354 174.951C250.189 174.785 249.98 174.668 249.753 174.613C249.525 174.558 249.286 174.566 249.062 174.638C248.839 174.709 248.64 174.84 248.486 175.017L246.02 177.855C245.973 177.909 245.907 177.942 245.836 177.947C245.765 177.952 245.695 177.929 245.641 177.882C245.587 177.836 245.554 177.77 245.549 177.699C245.544 177.629 245.567 177.559 245.614 177.505L248.081 174.667C248.299 174.416 248.582 174.229 248.899 174.128C249.217 174.027 249.556 174.016 249.88 174.094C250.204 174.173 250.5 174.339 250.735 174.574C250.97 174.81 251.135 175.105 251.213 175.428L259.214 208.746C259.224 208.785 259.224 208.826 259.215 208.866C259.206 208.905 259.189 208.942 259.164 208.974C259.139 209.006 259.106 209.031 259.07 209.049C259.033 209.066 258.993 209.076 258.953 209.075V209.074Z" fill="#494949"/>
<path d="M255.843 185.262C256.813 179.662 254.239 174.545 250.092 173.833C245.946 173.12 241.798 177.081 240.827 182.681C239.857 188.28 242.432 193.397 246.578 194.11C250.725 194.823 254.873 190.861 255.843 185.262Z" fill="#0CBC8B"/>
<path d="M261.119 209.945C261.108 209.945 261.097 209.945 261.086 209.943C261.051 209.939 261.017 209.928 260.986 209.91C260.956 209.893 260.929 209.87 260.907 209.842C260.885 209.815 260.869 209.783 260.86 209.749C260.851 209.715 260.848 209.68 260.852 209.645L265.962 168.331C266.017 167.881 266.202 167.457 266.494 167.109C266.786 166.761 267.173 166.505 267.608 166.37C268.043 166.236 268.508 166.23 268.946 166.352C269.384 166.475 269.778 166.721 270.079 167.061L275.919 173.648C275.966 173.701 275.99 173.771 275.986 173.842C275.981 173.912 275.949 173.979 275.896 174.026C275.842 174.072 275.772 174.096 275.701 174.092C275.63 174.088 275.564 174.055 275.516 174.002L269.677 167.415C269.444 167.152 269.14 166.962 268.801 166.867C268.462 166.773 268.103 166.777 267.767 166.881C267.431 166.985 267.132 167.183 266.906 167.452C266.68 167.721 266.537 168.049 266.494 168.396L261.385 209.711C261.377 209.775 261.346 209.835 261.297 209.878C261.248 209.921 261.185 209.945 261.119 209.945Z" fill="#494949"/>
<path d="M281.909 177.309C283.946 173.64 281.549 168.436 276.554 165.684C271.559 162.933 265.858 163.676 263.821 167.344C261.783 171.013 264.181 176.218 269.176 178.969C274.17 181.721 279.871 180.977 281.909 177.309Z" fill="#0CBC8B"/>
<path opacity="0.2" d="M282.133 201.624C285.433 199.022 285.237 193.299 281.695 188.842C278.152 184.384 272.604 182.88 269.304 185.482C266.003 188.084 266.199 193.807 269.742 198.264C273.284 202.721 278.832 204.225 282.133 201.624Z" fill="white"/>
<path opacity="0.5" d="M255.843 185.262C256.813 179.662 254.239 174.545 250.092 173.833C245.946 173.12 241.798 177.081 240.827 182.681C239.857 188.28 242.432 193.397 246.578 194.11C250.725 194.823 254.873 190.861 255.843 185.262Z" fill="white"/>
<path opacity="0.5" d="M281.909 177.309C283.946 173.64 281.549 168.436 276.554 165.684C271.559 162.933 265.858 163.676 263.821 167.344C261.783 171.013 264.181 176.218 269.176 178.969C274.17 181.721 279.871 180.977 281.909 177.309Z" fill="white"/>
<path d="M267.654 245H254.584L252.418 203.353H269.82L267.654 245Z" fill="#333333"/>
<path opacity="0.3" d="M267.654 245H254.584L252.418 203.353H269.82L267.654 245Z" fill="white"/>
<path d="M282.133 201.755C282.113 201.755 282.093 201.751 282.074 201.742C282.056 201.733 282.04 201.72 282.027 201.705L269.198 185.563C269.176 185.535 269.166 185.5 269.17 185.465C269.174 185.429 269.192 185.397 269.22 185.375C269.248 185.353 269.283 185.343 269.319 185.347C269.354 185.351 269.386 185.369 269.408 185.397L282.238 201.539C282.254 201.558 282.264 201.582 282.266 201.607C282.269 201.632 282.265 201.657 282.254 201.68C282.243 201.702 282.226 201.721 282.204 201.735C282.183 201.748 282.158 201.755 282.133 201.755Z" fill="white"/>
<path d="M281.055 178.602C281.027 178.602 280.999 178.593 280.976 178.576L264.559 166.638C264.545 166.628 264.533 166.615 264.524 166.6C264.515 166.585 264.508 166.568 264.506 166.551C264.503 166.533 264.504 166.515 264.508 166.498C264.512 166.481 264.52 166.465 264.53 166.451C264.54 166.437 264.553 166.425 264.569 166.416C264.584 166.407 264.6 166.401 264.618 166.398C264.635 166.395 264.653 166.396 264.67 166.4C264.687 166.404 264.703 166.412 264.718 166.422L281.136 178.361C281.158 178.377 281.175 178.401 281.183 178.428C281.192 178.454 281.191 178.483 281.183 178.51C281.174 178.536 281.157 178.56 281.134 178.576C281.111 178.592 281.083 178.601 281.055 178.601V178.602Z" fill="white"/>
<path d="M246.063 193.932C246.051 193.932 246.039 193.93 246.028 193.927C245.994 193.918 245.964 193.896 245.946 193.865C245.929 193.834 245.924 193.798 245.933 193.764L251.159 174.263C251.164 174.246 251.171 174.229 251.182 174.215C251.193 174.201 251.206 174.189 251.221 174.18C251.237 174.171 251.254 174.165 251.271 174.163C251.289 174.16 251.307 174.161 251.324 174.166C251.341 174.171 251.358 174.179 251.372 174.189C251.386 174.2 251.397 174.214 251.406 174.229C251.415 174.245 251.421 174.262 251.423 174.279C251.425 174.297 251.423 174.315 251.419 174.332L246.192 193.832C246.185 193.861 246.168 193.886 246.144 193.904C246.121 193.922 246.092 193.932 246.063 193.932Z" fill="white"/>
</svg>
