<svg width="324" height="245" viewBox="0 0 324 245" fill="none" xmlns="http://www.w3.org/2000/svg">
<g clip-path="url(#clip0_120_6405)">
<path d="M86.9164 178.407C88.0376 178.407 89.1129 177.958 89.9057 177.158C90.6985 176.359 91.1439 175.275 91.1439 174.144C91.1192 158.302 95.0376 142.708 102.54 128.789C108.211 118.337 113.972 112.598 114.031 112.541C114.814 111.749 115.258 110.677 115.264 109.557C115.271 108.438 114.841 107.361 114.068 106.558C113.294 105.756 112.238 105.293 111.128 105.268C110.018 105.244 108.943 105.661 108.136 106.429C107.871 106.689 101.57 112.915 95.2979 124.377C87.0018 139.629 82.6645 156.748 82.6891 174.144C82.6891 175.274 83.1345 176.359 83.9272 177.158C84.72 177.958 85.7952 178.407 86.9164 178.407Z" fill="#DEE8F5"/>
<path d="M142.92 136.101C145.193 131.49 139.177 122.814 129.479 116.721C119.781 110.629 110.075 109.428 107.801 114.039" fill="#8DDBE0"/>
<path d="M149.221 111.019C149.027 105.747 139.88 101.894 128.79 102.415C117.7 102.935 108.868 107.631 109.062 112.904" fill="#8DDBE0"/>
<path d="M68.6349 112.792C69.4342 107.705 79.3266 104.157 90.7307 104.865C102.135 105.574 110.732 110.272 109.933 115.358" fill="#8DDBE0"/>
<path d="M77.9266 88.6737C81.1174 84.4921 90.7847 86.7035 99.5189 93.6129C108.253 100.522 112.748 109.513 109.557 113.695" fill="#8DDBE0"/>
<path d="M103.958 74.2713C109.148 73.6028 114.413 82.0729 115.716 93.1902C117.02 104.307 113.87 113.862 108.68 114.531" fill="#8DDBE0"/>
<path d="M96.9205 113.985C96.9205 116.332 98.8073 117.154 101.135 117.154C102.24 117.134 103.294 116.678 104.068 115.883C104.843 115.088 105.277 114.019 105.277 112.904C105.277 111.789 104.843 110.72 104.068 109.925C103.294 109.13 102.24 108.674 101.135 108.654C98.8073 108.653 96.9205 111.638 96.9205 113.985Z" fill="#C1D8ED"/>
<path d="M112.015 121.063C114.343 121.063 116.23 119.161 116.23 116.813C116.23 114.466 114.343 112.563 112.015 112.563C109.688 112.563 107.801 114.466 107.801 116.813C107.801 119.161 109.688 121.063 112.015 121.063Z" fill="#C1D8ED"/>
<path d="M107.292 116.813C109.62 116.813 111.507 114.911 111.507 112.563C111.507 110.216 109.62 108.313 107.292 108.313C104.964 108.313 103.078 110.216 103.078 112.563C103.078 114.911 104.964 116.813 107.292 116.813Z" fill="#C1D8ED"/>
<path d="M70.3036 163.173C69.1824 163.173 68.1071 162.724 67.3143 161.924C66.5215 161.125 66.0761 160.04 66.0761 158.91C66.1007 143.068 62.1824 127.473 54.6801 113.555C49.009 103.103 43.2482 97.3639 43.1895 97.3073C42.401 96.5157 41.9538 95.4426 41.9448 94.3206C41.9359 93.1987 42.3659 92.1185 43.1415 91.3141C43.9172 90.5098 44.9761 90.0463 46.0885 90.024C47.2009 90.0018 48.2771 90.4227 49.0838 91.1954C49.3486 91.4548 55.6499 97.681 61.9218 109.143C70.2174 124.395 74.5541 141.515 74.5286 158.911C74.5285 160.041 74.0833 161.124 73.2911 161.924C72.4988 162.723 71.4243 163.172 70.3036 163.173Z" fill="#DEE8F5"/>
<path d="M14.3003 120.866C12.0274 116.256 18.0439 107.579 27.7418 101.487C37.4397 95.3953 47.1452 94.1943 49.4197 98.805" fill="#8DDBE0"/>
<path d="M8 95.785C8.19414 90.5125 17.3415 86.6601 28.4313 87.1802C39.521 87.7004 48.3533 92.3967 48.1589 97.6692" fill="#8DDBE0"/>
<path d="M88.5852 97.557C87.7862 92.4704 77.8935 88.922 66.4878 89.6306C55.082 90.3392 46.4868 95.0374 47.2857 100.124" fill="#8DDBE0"/>
<path d="M79.2935 73.4396C76.1026 69.2581 66.4353 71.4692 57.7012 78.3788C48.967 85.2885 44.4718 94.2793 47.6626 98.4609" fill="#8DDBE0"/>
<path d="M53.2621 59.0371C48.072 58.3686 42.8075 66.8387 41.5037 77.956C40.2 89.0734 43.3505 98.628 48.5405 99.2965" fill="#8DDBE0"/>
<path d="M56.0849 103.001C58.4126 103.001 60.2995 101.098 60.2995 98.7505C60.2995 96.4033 58.4126 94.5005 56.0849 94.5005C53.7572 94.5005 51.8703 96.4033 51.8703 98.7505C51.8703 101.098 53.7572 103.001 56.0849 103.001Z" fill="#C1D8ED"/>
<path d="M45.2048 105.829C47.5324 105.829 49.4194 103.927 49.4194 101.579C49.4194 99.2321 47.5324 97.3293 45.2048 97.3293C42.8771 97.3293 40.9902 99.2321 40.9902 101.579C40.9902 103.927 42.8771 105.829 45.2048 105.829Z" fill="#C1D8ED"/>
<path d="M49.9279 101.579C52.2555 101.579 54.1425 99.6766 54.1425 97.3294C54.1425 94.9821 52.2555 93.0793 49.9279 93.0793C47.6002 93.0793 45.7133 94.9821 45.7133 97.3294C45.7133 99.6766 47.6002 101.579 49.9279 101.579Z" fill="#C1D8ED"/>
<path d="M76.5 209.409C107.152 209.409 132 197.992 132 183.909C132 169.826 107.152 158.409 76.5 158.409C45.8482 158.409 21 169.826 21 183.909C21 197.992 45.8482 209.409 76.5 209.409Z" fill="#DEE8F5"/>
<path d="M281.066 198.183C278.933 198.183 276.887 197.329 275.379 195.808C273.87 194.287 273.023 192.224 273.023 190.073C273.071 159.935 265.617 130.267 251.345 103.788C240.556 83.9035 229.596 72.9851 229.487 72.8773C227.972 71.3746 227.108 69.3285 227.085 67.1859C227.061 65.0433 227.879 62.9783 229.361 61.4421C230.842 59.9058 232.866 59.0231 234.991 58.9868C237.115 58.9504 239.168 59.7634 240.7 61.2481C241.204 61.7416 253.189 73.5865 265.123 95.3919C280.906 124.409 289.157 156.978 289.108 190.073C289.108 192.224 288.261 194.287 286.753 195.808C285.244 197.329 283.199 198.183 281.066 198.183Z" fill="#DEE8F5"/>
<path d="M283.717 172.203C271.914 172.203 271.914 177.88 260.112 177.88C248.31 177.88 248.309 172.203 236.507 172.203C224.704 172.203 224.704 177.88 212.902 177.88C201.099 177.88 201.099 172.203 189.297 172.203C177.494 172.203 177.495 177.88 165.691 177.88C153.888 177.88 153.89 172.203 142.086 172.203C130.283 172.203 130.284 177.88 118.481 177.88C106.678 177.88 106.679 172.203 94.8781 172.203C83.0768 172.203 83.076 177.88 71.2731 177.88C59.4701 177.88 59.4713 172.203 47.668 172.203C35.8646 172.203 35.8666 177.88 24.0657 177.88C12.2647 177.88 12.2647 172.203 0.463791 172.203C-11.3371 172.203 -11.3367 177.88 -23.1373 177.88C-34.9378 177.88 -34.9386 172.203 -46.7396 172.203C-58.5405 172.203 -58.5401 177.88 -70.3406 177.88C-82.1412 177.88 -82.8469 170.098 -94.4528 172.249L-94.9591 244.806H72.0214" fill="#9EBCEA"/>
<path d="M324 166.931V245H29.4301C29.4301 245 79.1548 166.931 324 166.931Z" fill="#DEE8F5"/>
<path d="M260.779 138.144C260.779 138.144 256.568 135.892 257.508 124.328L248.806 122.701C248.806 122.701 249.784 133.069 245.382 136.361L260.779 138.144Z" fill="#E98862"/>
<g opacity="0.15">
<path d="M247.165 134.193L254.394 128.616L248.716 128.557C248.552 130.517 248.026 132.429 247.165 134.193Z" fill="black"/>
</g>
<path d="M262.445 119.843C261.843 123.352 259.944 126.674 256.875 127.807C253.231 129.152 250.532 129.243 246.331 129.243C240.599 129.243 240.788 123.215 240.627 117.139C240.464 111.039 240.947 104.496 243.213 102.371C247.733 98.128 261.009 100.815 262.623 107.911C263.457 111.582 263.022 116.503 262.445 119.843Z" fill="#E98862"/>
<path d="M257.102 127.475C257.283 128.059 257.409 128.313 257.93 128.001C259.976 126.775 264.58 124.108 266.149 114.114C267.554 105.162 262.077 101.468 257.707 100.15C253.942 99.0141 245.154 98.7806 241.03 101.287C237.476 103.448 241.03 108.472 241.03 108.472C242.6 108.545 242.917 109.906 246.623 109.906C249.487 109.906 251.351 108.615 254.03 108.729C256.486 108.833 256.99 110.342 256.903 111.31C256.379 117.178 256.463 125.412 257.102 127.475Z" fill="#0F1011"/>
<path d="M248.819 117.14C249.255 117.14 249.608 116.784 249.608 116.344C249.608 115.905 249.255 115.549 248.819 115.549C248.383 115.549 248.03 115.905 248.03 116.344C248.03 116.784 248.383 117.14 248.819 117.14Z" fill="#0F1011"/>
<path d="M242.592 116.626C243.028 116.626 243.382 116.27 243.382 115.83C243.382 115.39 243.028 115.034 242.592 115.034C242.156 115.034 241.803 115.39 241.803 115.83C241.803 116.27 242.156 116.626 242.592 116.626Z" fill="#0F1011"/>
<path d="M241.225 114.134C241.126 114.134 241.032 114.096 240.962 114.026C240.892 113.956 240.852 113.861 240.851 113.762C240.851 113.663 240.889 113.568 240.958 113.497C241.027 113.426 241.121 113.386 241.22 113.386L243.311 113.36H243.316C243.412 113.363 243.503 113.403 243.57 113.473C243.637 113.542 243.674 113.634 243.675 113.731C243.676 113.828 243.639 113.921 243.573 113.991C243.507 114.062 243.416 114.103 243.321 114.107L241.23 114.134H241.225Z" fill="#0F1011"/>
<path d="M250.523 114.903C250.493 114.903 250.464 114.899 250.435 114.892L248.374 114.392C248.326 114.381 248.281 114.361 248.241 114.332C248.201 114.303 248.167 114.267 248.141 114.224C248.115 114.182 248.098 114.136 248.09 114.087C248.082 114.038 248.084 113.988 248.096 113.94C248.107 113.891 248.128 113.846 248.157 113.806C248.186 113.766 248.223 113.732 248.265 113.707C248.307 113.681 248.353 113.664 248.402 113.657C248.451 113.65 248.5 113.653 248.548 113.665L250.609 114.165C250.697 114.187 250.774 114.24 250.826 114.315C250.878 114.39 250.901 114.482 250.89 114.572C250.879 114.663 250.836 114.747 250.769 114.808C250.701 114.869 250.613 114.903 250.523 114.903Z" fill="#0F1011"/>
<path d="M252.924 118.292C252.858 119.181 253.142 120.06 253.717 120.737C254.291 121.415 255.107 121.836 255.988 121.908C256.869 121.981 257.743 121.699 258.418 121.124C259.094 120.55 259.516 119.729 259.593 118.841C259.637 118.398 259.592 117.951 259.46 117.526C259.329 117.101 259.114 116.707 258.828 116.367C258.542 116.028 258.192 115.75 257.797 115.55C257.403 115.35 256.972 115.232 256.532 115.203C254.147 115.127 253.075 116.435 252.924 118.292Z" fill="#E98862"/>
<g opacity="0.15">
<path d="M245.315 120.759C245.288 120.759 245.261 120.755 245.235 120.747L243.336 120.158C243.299 120.147 243.265 120.128 243.236 120.102C243.207 120.076 243.184 120.045 243.168 120.009C243.152 119.974 243.143 119.935 243.143 119.896C243.143 119.857 243.152 119.819 243.167 119.783L244.416 116.978C244.447 116.914 244.502 116.865 244.568 116.84C244.635 116.816 244.708 116.819 244.773 116.848C244.837 116.877 244.888 116.93 244.914 116.997C244.94 117.063 244.94 117.137 244.913 117.203L243.79 119.724L245.395 120.221C245.457 120.241 245.51 120.282 245.545 120.338C245.58 120.393 245.594 120.46 245.584 120.525C245.574 120.59 245.542 120.649 245.493 120.692C245.443 120.735 245.38 120.759 245.315 120.759Z" fill="black"/>
</g>
<path d="M248.453 122.615C248.453 122.615 245.541 122.925 243.497 122.205C243.497 122.205 243.513 124.14 245.818 124.331C248.124 124.521 248.453 122.615 248.453 122.615Z" fill="white"/>
<path d="M226.529 223.279C225.494 223.104 213.819 221.093 213.819 221.093L215.744 209.723C215.744 209.723 227.388 211.729 228.419 211.903L226.529 223.279Z" fill="#E98862"/>
<path d="M207.156 234.184C207.107 234.49 207.12 234.804 207.196 235.104C207.272 235.405 207.409 235.686 207.598 235.931C207.787 236.176 208.023 236.379 208.294 236.528C208.564 236.676 208.861 236.767 209.168 236.794C209.592 236.832 210.019 236.747 210.397 236.548C210.775 236.35 211.09 236.047 211.303 235.674L217.9 223.176C218.027 222.934 218.1 222.667 218.115 222.394C218.13 222.12 218.086 221.847 217.986 221.592C217.036 219.56 216.757 217.274 217.191 215.071C217.599 213.367 218.474 211.813 219.716 210.585C219.836 210.479 219.924 210.341 219.97 210.187C220.015 210.032 220.016 209.868 219.972 209.713C219.928 209.558 219.842 209.418 219.722 209.311C219.603 209.204 219.456 209.133 219.298 209.107L212.877 208.022C212.688 207.99 212.494 207.996 212.307 208.04C212.12 208.084 211.943 208.164 211.787 208.277C211.631 208.39 211.498 208.533 211.397 208.697C211.296 208.862 211.227 209.045 211.196 209.236L207.156 234.184Z" fill="#C1D8ED"/>
<path d="M262.669 192.528C267.516 192.731 272.448 192.874 277.383 192.997L284.799 193.162L292.206 193.296L292.944 193.31C296.003 193.369 298.926 194.595 301.124 196.74C303.322 198.886 304.631 201.793 304.789 204.874C304.946 207.955 303.939 210.981 301.971 213.343C300.003 215.706 297.221 217.228 294.184 217.603L220.981 226.567L217.998 204.751L290.875 193.406L292.853 217.714L285.332 218.203L277.815 218.662C272.796 218.954 267.775 219.228 262.665 219.44L262.669 192.528Z" fill="#262626"/>
<path d="M281.135 218.501C271.028 217.018 270.023 216.743 269.69 216.656L272.662 205.519C272.628 205.509 272.584 205.497 272.532 205.486C273.36 205.668 278.496 206.459 282.78 207.087L281.135 218.501Z" fill="#E98862"/>
<path d="M293.759 228.415C293.865 228.707 293.911 229.017 293.892 229.326C293.874 229.636 293.793 229.939 293.654 230.215C293.515 230.492 293.32 230.736 293.083 230.934C292.846 231.131 292.571 231.277 292.275 231.363C291.865 231.481 291.43 231.479 291.022 231.357C290.613 231.234 290.247 230.997 289.968 230.672L281.138 219.666C280.969 219.452 280.847 219.204 280.782 218.939C280.716 218.674 280.708 218.397 280.757 218.128C281.308 215.952 281.152 213.654 280.311 211.574C279.59 209.979 278.438 208.62 276.988 207.653C276.85 207.572 276.738 207.453 276.664 207.31C276.591 207.167 276.559 207.006 276.573 206.845C276.586 206.685 276.645 206.531 276.742 206.403C276.839 206.275 276.97 206.178 277.12 206.122L283.22 203.828C283.4 203.76 283.592 203.729 283.784 203.736C283.975 203.744 284.164 203.789 284.339 203.87C284.513 203.951 284.67 204.065 284.801 204.208C284.931 204.35 285.032 204.516 285.099 204.698L293.759 228.415Z" fill="#C1D8ED"/>
<path d="M246.414 217.463C243.347 217.2 240.281 217.01 237.215 216.832C234.149 216.667 231.083 216.503 228.019 216.393L223.422 216.214L218.826 216.08C215.761 215.978 212.698 215.935 209.635 215.876L210.697 193.682C216.431 194.491 222.174 195.233 227.915 195.994C233.655 196.756 239.402 197.457 245.148 198.169L253.772 199.195L262.402 200.168C268.158 200.793 273.915 201.412 279.685 201.922L277.153 223.799C271.422 222.956 265.679 222.222 259.934 221.493L251.313 220.438L242.687 219.433C236.933 218.792 231.18 218.142 225.421 217.548C219.662 216.954 213.903 216.346 208.138 215.801C205.372 215.54 202.807 214.235 200.954 212.148C199.102 210.061 198.1 207.346 198.148 204.545C198.196 201.745 199.291 199.066 201.214 197.045C203.137 195.024 205.746 193.81 208.519 193.645L209.201 193.606C212.26 193.426 215.319 193.261 218.377 193.036L222.965 192.719L227.551 192.358C230.608 192.126 233.666 191.837 236.722 191.552C239.779 191.252 242.835 190.939 245.89 190.554L246.414 217.463Z" fill="#262626"/>
<path d="M273.798 189.158L275.411 216.459L228.847 215.907L232.362 191.738L273.798 189.158Z" fill="#262626"/>
<path d="M289.343 182.986L277.002 144.405C276.491 142.396 275.429 140.573 273.937 139.146C271.448 136.636 267.15 135.016 261.911 135.01C261.518 138.092 242.967 138.103 242.825 135.082C242.117 135.093 241.567 135.104 241.224 135.12C233.729 135.446 230.712 138.355 229.754 142.734L214.023 181.121C213.638 182.061 213.507 183.087 213.642 184.095C213.778 185.102 214.175 186.056 214.793 186.859C215.411 187.662 216.229 188.285 217.164 188.667C218.099 189.048 219.117 189.174 220.115 189.031L228.71 187.795C228.287 189.954 228.22 191.633 229.057 193.573C231.338 198.863 276.181 201.06 276.78 191.755C276.786 191.664 276.787 191.574 276.79 191.481L284.241 190.782C285.127 190.699 285.982 190.416 286.745 189.955C287.508 189.494 288.159 188.866 288.648 188.117C289.138 187.368 289.455 186.518 289.575 185.629C289.695 184.741 289.616 183.836 289.343 182.982V182.986ZM228.42 176.189L231.264 169.25C231.232 171.732 231.1 173.91 230.911 175.831L228.42 176.189ZM275.766 179.554L273.592 179.758C272.52 176.319 271.979 172.734 271.987 169.129C271.987 168.709 272.005 168.292 272.031 167.877L275.766 179.554Z" fill="#1D9BF0"/>
<path d="M258.309 153.47L260.233 182.403C260.256 182.744 260.209 183.086 260.095 183.408C259.981 183.73 259.803 184.025 259.571 184.275C259.34 184.525 259.06 184.724 258.749 184.86C258.438 184.996 258.102 185.066 257.763 185.066H217.688C217.076 185.066 216.485 184.837 216.03 184.424C215.576 184.01 215.289 183.441 215.226 182.827L212.259 153.893C212.223 153.546 212.26 153.194 212.368 152.862C212.475 152.53 212.651 152.224 212.883 151.965C213.115 151.705 213.398 151.498 213.715 151.356C214.031 151.214 214.374 151.14 214.72 151.14H255.836C256.465 151.14 257.07 151.38 257.529 151.813C257.988 152.245 258.267 152.838 258.309 153.47Z" fill="#9EBCEA"/>
<path d="M221.036 185.066H263.142C264.096 185.066 264.87 184.286 264.87 183.324C264.87 182.362 264.096 181.582 263.142 181.582H221.036C220.082 181.582 219.308 182.362 219.308 183.324C219.308 184.286 220.082 185.066 221.036 185.066Z" fill="#9EBCEA"/>
<path d="M235.185 171.948C237.291 171.948 238.998 170.226 238.998 168.103C238.998 165.98 237.291 164.258 235.185 164.258C233.08 164.258 231.373 165.98 231.373 168.103C231.373 170.226 233.08 171.948 235.185 171.948Z" fill="white"/>
<path d="M240.678 188.74C243.124 190.262 246.909 190.982 250.21 191.245L250.396 185.181C248.843 185.137 246.457 184.973 244.121 185.066C243.065 184.198 242.457 183.94 241.374 182.847C240.22 181.684 237.192 180.986 236.621 182.847C236.05 184.708 238.532 187.4 240.678 188.74Z" fill="#E98862"/>
<path d="M242.825 135.083C242.967 138.104 244.595 142.547 249.623 142.882C256.322 143.327 261.518 138.093 261.91 135.011H261.894C255.298 135.01 246.671 135.021 242.825 135.083Z" fill="#E98862"/>
<path d="M174.522 117.698C170.195 108.926 181.644 92.4191 200.094 80.8292C218.544 69.2394 237.009 66.9551 241.335 75.7271" fill="#8DDBE0"/>
<path d="M162.533 69.9815C162.903 59.9509 180.306 52.6217 201.403 53.6115C222.5 54.6014 239.303 63.5351 238.934 73.5662" fill="#8DDBE0"/>
<path d="M315.845 73.3533C314.325 63.6766 295.505 56.9257 273.809 58.274C252.113 59.6223 235.758 68.5601 237.278 78.2368" fill="#8DDBE0"/>
<path d="M298.168 27.4704C292.096 19.5151 273.706 23.7219 257.089 36.8669C240.471 50.0119 231.921 67.1178 237.991 75.0723" fill="#8DDBE0"/>
<path d="M248.645 0.0705438C238.769 -1.20154 228.756 14.9126 226.275 36.0627C223.794 57.2128 229.788 75.3898 239.662 76.6618" fill="#8DDBE0"/>
<path d="M254.015 83.0288C258.443 83.0288 262.033 79.4088 262.033 74.9434C262.033 70.4779 258.443 66.8579 254.015 66.8579C249.587 66.8579 245.997 70.4779 245.997 74.9434C245.997 79.4088 249.587 83.0288 254.015 83.0288Z" fill="#C1D8ED"/>
<path d="M241.335 81.0053C241.335 85.4707 237.745 90.4682 233.317 90.4682C228.888 90.4682 225.298 85.4707 225.298 81.0053C225.313 78.8707 226.164 76.8288 227.667 75.3248C229.169 73.8207 231.2 72.9767 233.316 72.9767C235.433 72.9767 237.464 73.8207 238.966 75.3248C240.468 76.8288 241.32 78.8707 241.335 81.0053Z" fill="#C1D8ED"/>
<path d="M242.301 82.3824C246.73 82.3824 250.32 78.7625 250.32 74.297C250.32 69.8315 246.73 66.2115 242.301 66.2115C237.873 66.2115 234.283 69.8315 234.283 74.297C234.283 78.7625 237.873 82.3824 242.301 82.3824Z" fill="#C1D8ED"/>
</g>
<defs>
<clipPath id="clip0_120_6405">
<rect width="418.959" height="245" fill="white" transform="translate(-94.9591)"/>
</clipPath>
</defs>
</svg>
