<svg width="16" height="14" viewBox="0 0 16 14" fill="none" xmlns="http://www.w3.org/2000/svg">
<path d="M12.6665 0.333512H6.63722C6.12936 0.331943 5.62795 0.447232 5.17179 0.67046C4.71562 0.893688 4.31693 1.21887 4.00655 1.62085L0.139883 6.59085C0.0488464 6.70787 -0.000579834 6.85191 -0.000579834 7.00018C-0.000579834 7.14845 0.0488464 7.29248 0.139883 7.40951L4.00655 12.3795C4.31693 12.7815 4.71562 13.1067 5.17179 13.3299C5.62795 13.5531 6.12936 13.6684 6.63722 13.6668H12.6665C13.5503 13.6658 14.3975 13.3143 15.0224 12.6894C15.6473 12.0645 15.9988 11.2172 15.9999 10.3335V3.66685C15.9988 2.78312 15.6473 1.93588 15.0224 1.31099C14.3975 0.6861 13.5503 0.33457 12.6665 0.333512ZM14.6665 10.3335C14.6665 10.8639 14.4558 11.3727 14.0808 11.7477C13.7057 12.1228 13.197 12.3335 12.6665 12.3335H6.63722C6.33249 12.3346 6.0316 12.2655 5.75785 12.1316C5.4841 11.9978 5.24482 11.8027 5.05855 11.5615L1.51122 7.00018L5.05855 2.43885C5.24482 2.19767 5.4841 2.0026 5.75785 1.86873C6.0316 1.73486 6.33249 1.66579 6.63722 1.66685H12.6665C13.197 1.66685 13.7057 1.87756 14.0808 2.25263C14.4558 2.6277 14.6665 3.13641 14.6665 3.66685V10.3335ZM11.4712 5.80485L10.2759 7.00018L11.4712 8.19551C11.5349 8.25701 11.5857 8.33057 11.6206 8.41191C11.6556 8.49325 11.6739 8.58073 11.6747 8.66924C11.6755 8.75776 11.6586 8.84555 11.6251 8.92748C11.5916 9.00941 11.5421 9.08385 11.4795 9.14644C11.4169 9.20904 11.3424 9.25854 11.2605 9.29206C11.1786 9.32558 11.0908 9.34245 11.0023 9.34168C10.9138 9.34091 10.8263 9.32252 10.7449 9.28758C10.6636 9.25264 10.59 9.20185 10.5286 9.13818L9.33322 7.94285L8.13788 9.13818C8.01215 9.25962 7.84375 9.32681 7.66895 9.32529C7.49415 9.32378 7.32694 9.25366 7.20334 9.13006C7.07973 9.00645 7.00962 8.83924 7.0081 8.66445C7.00658 8.48965 7.07378 8.32125 7.19522 8.19551L8.39055 7.00018L7.19522 5.80485C7.07378 5.67911 7.00658 5.51071 7.0081 5.33591C7.00962 5.16111 7.07973 4.99391 7.20334 4.8703C7.32694 4.74669 7.49415 4.67658 7.66895 4.67506C7.84375 4.67354 8.01215 4.74074 8.13788 4.86218L9.33322 6.05751L10.5286 4.86218C10.6543 4.74074 10.8227 4.67354 10.9975 4.67506C11.1723 4.67658 11.3395 4.74669 11.4631 4.8703C11.5867 4.99391 11.6568 5.16111 11.6583 5.33591C11.6599 5.51071 11.5927 5.67911 11.4712 5.80485Z" fill="#F73030"/>
</svg>
