<svg width="621" height="516" viewBox="0 0 621 516" fill="none" xmlns="http://www.w3.org/2000/svg">
<g clip-path="url(#clip0_1080_7694)">
<path opacity="0.2" d="M311.305 346.119C312.845 346.581 314.388 346.96 315.933 347.296C311.628 354.477 309.544 362.772 309.946 371.135C310.347 379.498 313.216 387.555 318.189 394.29C323.163 401.026 330.019 406.138 337.893 408.983C345.768 411.828 354.308 412.278 362.438 410.277C364.99 415.353 368.664 419.781 373.18 423.228C377.697 426.674 382.938 429.048 388.507 430.169C394.077 431.291 399.828 431.131 405.327 429.701C410.825 428.272 415.926 425.61 420.244 421.918C425.982 431.402 435.098 438.361 445.758 441.398C456.418 444.435 467.833 443.323 477.707 438.286C487.581 433.249 495.183 424.661 498.983 414.249C502.783 403.836 502.5 392.371 498.191 382.158C499.491 382.648 500.815 383.112 502.169 383.518C510.937 386.151 520.183 386.79 529.231 385.389C538.278 383.988 546.898 380.582 554.459 375.42C562.02 370.258 568.331 363.471 572.931 355.555C577.531 347.639 580.303 338.795 581.044 329.67C581.785 320.545 580.477 311.37 577.214 302.815C573.952 294.261 568.819 286.545 562.19 280.23C555.561 273.916 547.604 269.163 538.901 266.32C530.198 263.478 520.97 262.616 511.892 263.8C510.71 254.562 507.132 245.793 501.512 238.366C495.892 230.939 488.427 225.112 479.858 221.464C471.288 217.816 461.914 216.473 452.665 217.57C443.416 218.667 434.615 222.165 427.137 227.716C417.132 220.797 404.959 217.738 392.872 219.107C380.786 220.476 369.605 226.18 361.401 235.161C353.972 230.537 345.64 227.553 336.963 226.411C328.287 225.269 319.467 225.994 311.094 228.538C302.721 231.082 294.988 235.387 288.414 241.162C281.84 246.938 276.576 254.052 272.975 262.028C269.373 270.004 267.519 278.657 267.534 287.408C267.549 296.159 269.435 304.806 273.064 312.769C276.693 320.732 281.982 327.827 288.577 333.58C295.171 339.333 302.919 343.609 311.301 346.124L311.305 346.119Z" fill="#367CFF"/>
<path opacity="0.2" d="M315.771 58.4889C314.163 58.4889 312.576 58.5709 310.999 58.6889C313.06 50.5739 312.673 42.0304 309.886 34.1353C307.099 26.2401 302.037 19.3467 295.338 14.3238C288.639 9.30102 280.604 6.37359 272.244 5.91054C263.884 5.4475 255.574 7.46957 248.362 11.7219C244.459 7.59345 239.668 4.40689 234.352 2.40337C229.036 0.399846 223.334 -0.368147 217.677 0.157514C212.02 0.683174 206.557 2.48871 201.701 5.43749C196.845 8.38626 192.723 12.401 189.648 17.1779C181.427 9.74325 170.697 5.69628 159.614 5.85057C148.531 6.00486 137.918 10.349 129.907 18.0095C121.896 25.6701 117.083 36.0792 116.434 47.1441C115.785 58.2091 119.349 69.1094 126.409 77.6539C125.019 77.5599 123.621 77.4949 122.209 77.4949C113.055 77.4938 104.016 79.5392 95.7547 83.4813C87.493 87.4234 80.217 93.1625 74.459 100.279C68.701 107.395 64.6067 115.709 62.4756 124.611C60.3444 133.514 60.2304 142.78 62.1418 151.732C64.0532 160.685 67.9417 169.096 73.5228 176.352C79.1039 183.608 86.2365 189.525 94.3987 193.669C102.561 197.813 111.546 200.08 120.698 200.304C129.849 200.529 138.935 198.704 147.29 194.965C151.076 203.474 157.022 210.845 164.539 216.344C172.055 221.844 180.88 225.281 190.136 226.313C199.392 227.346 208.757 225.939 217.301 222.232C225.845 218.524 233.27 212.645 238.838 205.18C250.408 208.933 262.947 208.366 274.131 203.582C285.315 198.799 294.387 190.123 299.664 179.164C308.109 181.461 316.948 181.926 325.588 180.529C334.228 179.132 342.47 175.904 349.76 171.061C357.051 166.219 363.223 159.875 367.861 152.453C372.5 145.031 375.499 136.703 376.657 128.028C377.815 119.353 377.105 110.53 374.575 102.151C372.046 93.7728 367.754 86.0316 361.989 79.4468C356.223 72.8619 349.117 67.5853 341.146 63.9708C333.175 60.3563 324.523 58.4872 315.771 58.4889Z" fill="#367CFF"/>
<path d="M355.21 370.378C355.151 383.555 349.875 396.173 340.536 405.469C331.198 414.766 318.557 419.986 305.379 419.986C292.202 419.986 279.561 414.766 270.223 405.469C260.884 396.173 255.608 383.555 255.549 370.378H355.21Z" fill="white" stroke="#333333" stroke-width="2" stroke-linecap="round" stroke-linejoin="round"/>
<path d="M355.205 370.378C355.205 383.593 349.955 396.266 340.611 405.61C331.267 414.954 318.594 420.204 305.379 420.204C292.164 420.204 279.491 414.954 270.147 405.61C260.802 396.266 255.553 383.593 255.553 370.378" fill="white"/>
<path d="M355.205 370.378C355.205 383.593 349.955 396.266 340.611 405.61C331.267 414.954 318.594 420.204 305.379 420.204C292.164 420.204 279.491 414.954 270.147 405.61C260.802 396.266 255.553 383.593 255.553 370.378" stroke="#333333" stroke-width="2" stroke-linecap="round" stroke-linejoin="round"/>
<path d="M527.119 370.378V494.688C527.116 499.911 525.04 504.919 521.345 508.611C517.651 512.304 512.642 514.378 507.419 514.378H103.34C98.117 514.378 93.1077 512.304 89.4135 508.611C85.7194 504.919 83.6427 499.911 83.64 494.688V370.378H255.55C255.609 383.555 260.885 396.173 270.224 405.469C279.562 414.766 292.203 419.986 305.381 419.986C318.558 419.986 331.199 414.766 340.537 405.469C349.876 396.173 355.152 383.555 355.211 370.378H527.119Z" fill="white"/>
<path d="M507.42 515.378H103.34C97.8531 515.373 92.5923 513.192 88.7116 509.313C84.831 505.434 82.6474 500.174 82.64 494.687V370.378C82.64 370.113 82.7454 369.858 82.9329 369.671C83.1204 369.483 83.3748 369.378 83.64 369.378H255.55C255.815 369.378 256.07 369.483 256.257 369.671C256.445 369.858 256.55 370.113 256.55 370.378C256.55 383.328 261.695 395.749 270.852 404.906C280.009 414.063 292.429 419.208 305.38 419.208C318.331 419.208 330.751 414.063 339.908 404.906C349.065 395.749 354.21 383.328 354.21 370.378C354.21 370.113 354.315 369.858 354.503 369.671C354.69 369.483 354.945 369.378 355.21 369.378H527.119C527.384 369.378 527.639 369.483 527.826 369.671C528.014 369.858 528.119 370.113 528.119 370.378V494.687C528.112 500.174 525.929 505.434 522.048 509.313C518.168 513.192 512.907 515.373 507.42 515.378ZM84.639 371.378V494.687C84.6459 499.644 86.6186 504.395 90.1243 507.899C93.63 511.403 98.3824 513.373 103.339 513.378H507.42C512.377 513.373 517.129 511.403 520.635 507.899C524.14 504.395 526.113 499.644 526.12 494.687V371.378H356.2C355.943 384.686 350.475 397.363 340.973 406.683C331.47 416.004 318.69 421.225 305.38 421.225C292.069 421.225 279.289 416.004 269.786 406.683C260.284 397.363 254.816 384.686 254.559 371.378H84.639Z" fill="#333333"/>
<path d="M527.119 370.378H355.21C355.151 383.555 349.875 396.172 340.536 405.469C331.198 414.766 318.557 419.986 305.379 419.986C292.202 419.986 279.561 414.766 270.223 405.469C260.884 396.172 255.608 383.555 255.549 370.378H83.6389L209.319 291.317H406.469L527.119 370.378Z" fill="#367CFF"/>
<path opacity="0.6" d="M527.119 370.378H355.21C355.151 383.555 349.875 396.172 340.536 405.469C331.198 414.766 318.557 419.986 305.379 419.986C292.202 419.986 279.561 414.766 270.223 405.469C260.884 396.172 255.608 383.555 255.549 370.378H83.6389L209.319 291.317H406.469L527.119 370.378Z" fill="white"/>
<path d="M305.38 421.208C292.077 421.193 279.308 415.97 269.809 406.656C260.31 397.342 254.836 384.678 254.559 371.378H83.639C83.4219 371.378 83.2108 371.307 83.0374 371.177C82.864 371.047 82.7377 370.863 82.6776 370.655C82.6176 370.446 82.627 370.224 82.7044 370.021C82.7819 369.818 82.9232 369.646 83.107 369.531L208.787 290.471C208.946 290.371 209.131 290.317 209.319 290.317H406.469C406.664 290.317 406.854 290.374 407.017 290.481L527.667 369.542C527.847 369.66 527.984 369.833 528.058 370.035C528.131 370.237 528.138 370.458 528.076 370.664C528.015 370.87 527.889 371.051 527.716 371.18C527.544 371.308 527.334 371.378 527.119 371.378H356.2C355.923 384.678 350.449 397.342 340.951 406.655C331.452 415.969 318.683 421.193 305.38 421.208ZM87.107 369.378H255.55C255.815 369.378 256.07 369.483 256.257 369.671C256.445 369.858 256.55 370.113 256.55 370.378C256.55 383.328 261.695 395.749 270.852 404.906C280.009 414.063 292.429 419.208 305.38 419.208C318.33 419.208 330.751 414.063 339.908 404.906C349.065 395.749 354.21 383.328 354.21 370.378C354.21 370.113 354.315 369.858 354.503 369.671C354.69 369.483 354.945 369.378 355.21 369.378H523.768L406.168 292.317H209.607L87.107 369.378Z" fill="#333333"/>
<path d="M141.548 297.746C141.365 297.746 141.185 297.695 141.028 297.6C140.872 297.504 140.745 297.368 140.661 297.205C140.576 297.042 140.539 296.859 140.551 296.676C140.564 296.493 140.627 296.318 140.733 296.168C140.918 295.906 158.991 269.778 138.815 245.959C135.244 241.72 130.789 238.314 125.762 235.978C120.735 233.643 115.258 232.436 109.715 232.442H109.449C111.365 239.099 111.023 245.017 108.31 249.556C107.154 251.608 105.448 253.296 103.385 254.43C101.321 255.565 98.9816 256.1 96.63 255.977C94.6834 255.817 92.8257 255.093 91.2842 253.894C89.7428 252.694 88.5844 251.072 87.951 249.224C85.732 243.436 88.051 237.824 94.163 234.207C98.0348 232.072 102.337 230.834 106.752 230.587C105.316 226.779 103.449 223.149 101.186 219.766C93.901 208.64 80.624 200.938 64.757 198.635C51.312 196.683 38.426 198.981 31.925 204.487C31.7226 204.658 31.4605 204.743 31.1961 204.721C30.9318 204.699 30.687 204.573 30.5155 204.371C30.344 204.168 30.26 203.906 30.2818 203.642C30.3037 203.377 30.4296 203.132 30.632 202.961C37.551 197.101 51.058 194.624 65.045 196.661C81.478 199.046 95.26 207.07 102.86 218.675C105.324 222.355 107.328 226.323 108.828 230.49C114.806 230.347 120.74 231.546 126.193 234C131.647 236.454 136.48 240.101 140.337 244.67C161.53 269.69 142.554 297.056 142.36 297.329C142.267 297.458 142.146 297.563 142.004 297.636C141.863 297.708 141.707 297.746 141.548 297.746ZM107.4 232.516C103.12 232.699 98.9398 233.867 95.185 235.929C89.909 239.052 87.955 243.637 89.822 248.509C90.3276 250.002 91.2576 251.315 92.498 252.288C93.7385 253.26 95.2355 253.85 96.806 253.985C98.7833 254.074 100.746 253.61 102.475 252.647C104.204 251.684 105.632 250.259 106.597 248.531C109.09 244.361 109.318 238.818 107.4 232.516Z" fill="#333333"/>
<path d="M14.668 220.614C12.9703 221.121 11.1414 220.946 9.57094 220.126C8.00044 219.305 6.81233 217.904 6.25958 216.22C5.70684 214.536 5.83312 212.704 6.61155 211.112C7.38998 209.52 8.75906 208.295 10.4273 207.697C12.0955 207.1 13.9311 207.177 15.5432 207.912C17.1553 208.648 18.4166 209.984 19.0585 211.636C19.7004 213.287 19.6722 215.124 18.9799 216.755C18.2876 218.387 16.986 219.683 15.352 220.369C15.1285 220.463 14.9002 220.544 14.668 220.614ZM11.343 209.5C10.4129 209.779 9.58937 210.334 8.98105 211.09C8.37273 211.847 8.00828 212.771 7.93582 213.739C7.86336 214.708 8.08631 215.675 8.57521 216.514C9.06411 217.353 9.79599 218.024 10.6742 218.438C11.5524 218.853 12.5356 218.991 13.494 218.835C14.4524 218.679 15.341 218.236 16.0423 217.564C16.7437 216.893 17.2248 216.024 17.4222 215.073C17.6196 214.123 17.524 213.134 17.148 212.239C16.6916 211.144 15.8451 210.258 14.7726 209.752C13.7001 209.246 12.478 209.156 11.343 209.5Z" fill="#333333"/>
<path d="M14.656 204.941C13.0484 205.421 11.3201 205.289 9.80343 204.572C8.28679 203.855 7.08887 202.602 6.44001 201.055C5.9198 199.815 5.77908 198.448 6.03563 197.128C6.29217 195.807 6.93447 194.593 7.8813 193.638C8.82813 192.682 10.0369 192.029 11.3549 191.761C12.6728 191.493 14.0407 191.622 15.2855 192.131C16.5303 192.64 17.5962 193.507 18.3483 194.622C19.1003 195.737 19.5049 197.05 19.5107 198.395C19.5165 199.74 19.1234 201.057 18.381 202.178C17.6386 203.3 16.5804 204.176 15.34 204.696C15.1164 204.789 14.8881 204.871 14.656 204.941ZM11.335 193.827C11.172 193.876 11.012 193.934 10.852 194C9.67845 194.492 8.74855 195.431 8.2668 196.609C7.78505 197.787 7.79088 199.108 8.28301 200.282C8.64175 201.137 9.24066 201.87 10.0073 202.393C10.774 202.915 11.6755 203.204 12.6029 203.224C13.5302 203.245 14.4437 202.996 15.2328 202.509C16.0219 202.021 16.6528 201.315 17.0492 200.477C17.4456 199.638 17.5905 198.703 17.4664 197.783C17.3423 196.864 16.9544 196 16.3498 195.297C15.7452 194.593 14.9497 194.08 14.0596 193.819C13.1694 193.558 12.2227 193.561 11.334 193.827H11.335Z" fill="#333333"/>
<path d="M12.715 212.013C17.6259 212.013 21.607 209.354 21.607 206.074C21.607 202.794 17.6259 200.135 12.715 200.135C7.80408 200.135 3.823 202.794 3.823 206.074C3.823 209.354 7.80408 212.013 12.715 212.013Z" fill="white"/>
<path d="M16.6481 212.45C15.3733 212.827 14.0504 213.017 12.7211 213.013C7.17405 213.013 2.82705 209.973 2.82105 206.082C2.81505 202.191 7.16005 199.14 12.7061 199.135C15.124 199.088 17.5029 199.749 19.5511 201.035C20.4707 201.514 21.2414 202.236 21.7795 203.123C22.3177 204.009 22.6027 205.026 22.6036 206.063C22.6046 207.1 22.3214 208.118 21.7848 209.005C21.2482 209.892 20.4788 210.616 19.5601 211.097C18.6616 211.689 17.6803 212.145 16.6481 212.45ZM9.38905 201.614C6.71705 202.414 4.82305 204.141 4.82405 206.08C4.82405 208.758 8.44105 211.016 12.7241 211.013C14.7473 211.055 16.7391 210.507 18.4561 209.436C19.1 209.139 19.6453 208.664 20.0273 208.067C20.4093 207.469 20.6119 206.775 20.6112 206.066C20.6104 205.357 20.4063 204.663 20.0231 204.067C19.6399 203.47 19.0936 202.996 18.4491 202.701C16.7308 201.633 14.7386 201.089 12.7161 201.135C11.5897 201.132 10.4689 201.294 9.38905 201.614Z" fill="#333333"/>
<path d="M14.896 211.831L14.686 200.282L11.814 200.165L11.613 211.967L14.896 211.831Z" fill="#333333"/>
<path d="M0.918 208.587C1.425 208.587 1.836 208.176 1.836 207.669C1.836 207.162 1.425 206.751 0.918 206.751C0.411003 206.751 0 207.162 0 207.669C0 208.176 0.411003 208.587 0.918 208.587Z" fill="#333333"/>
<path d="M1.63504 203.674C2.14204 203.674 2.55304 203.263 2.55304 202.756C2.55304 202.249 2.14204 201.838 1.63504 201.838C1.12804 201.838 0.717041 202.249 0.717041 202.756C0.717041 203.263 1.12804 203.674 1.63504 203.674Z" fill="#333333"/>
<path d="M236.176 99.073L436.165 190.268L375.357 323.618C374.412 325.691 372.682 327.304 370.548 328.101C368.413 328.899 366.049 328.816 363.976 327.87L179.621 243.804C177.548 242.859 175.935 241.129 175.138 238.994C174.34 236.86 174.423 234.496 175.369 232.423L236.176 99.073Z" fill="#367CFF"/>
<path d="M236.176 99.073L436.165 190.268L375.357 323.618C374.412 325.691 372.682 327.304 370.548 328.101C368.413 328.899 366.049 328.816 363.976 327.87L179.621 243.804C177.548 242.859 175.935 241.129 175.138 238.994C174.34 236.86 174.423 234.496 175.369 232.423L236.176 99.073Z" fill="white"/>
<path d="M367.536 329.647C366.164 329.646 364.808 329.35 363.561 328.778L179.207 244.714C176.894 243.657 175.095 241.725 174.206 239.343C173.316 236.961 173.407 234.323 174.46 232.008L235.267 98.6571C235.322 98.5375 235.399 98.4298 235.495 98.3401C235.591 98.2505 235.704 98.1807 235.827 98.1347C235.951 98.0887 236.082 98.0675 236.213 98.0722C236.344 98.0769 236.473 98.1075 236.593 98.1621L436.58 189.355C436.7 189.409 436.808 189.486 436.898 189.582C436.988 189.678 437.059 189.791 437.105 189.914C437.151 190.037 437.173 190.168 437.169 190.299C437.165 190.431 437.134 190.56 437.08 190.68L376.267 324.031C375.502 325.705 374.272 327.124 372.725 328.119C371.177 329.115 369.376 329.645 367.536 329.647ZM236.673 100.4L176.28 232.838C175.447 234.67 175.375 236.758 176.079 238.643C176.783 240.529 178.207 242.058 180.037 242.895L364.391 326.958C365.298 327.372 366.278 327.603 367.274 327.638C368.27 327.673 369.264 327.512 370.197 327.163C371.131 326.814 371.987 326.285 372.716 325.605C373.446 324.925 374.034 324.108 374.447 323.201L434.84 190.76L236.673 100.4Z" fill="#333333"/>
<path d="M437.046 189.792L374.509 73.3851C373.597 71.7003 372.161 70.3591 370.418 69.565C368.674 68.7708 366.72 68.5673 364.85 68.9851L235.957 98.1001C235.791 98.1377 235.636 98.2173 235.509 98.3313C235.382 98.4453 235.286 98.5899 235.231 98.7514C235.176 98.9129 235.163 99.0859 235.193 99.2539C235.224 99.4219 235.297 99.5793 235.405 99.7111L306.035 185.548C308.077 188.094 310.663 190.151 313.603 191.567C316.544 192.983 319.764 193.723 323.028 193.731H323.371L436.186 191.271C436.357 191.268 436.524 191.22 436.672 191.133C436.82 191.047 436.942 190.923 437.029 190.776C437.115 190.628 437.162 190.46 437.165 190.289C437.168 190.118 437.127 189.949 437.046 189.798V189.792Z" fill="#333333"/>
<path d="M272.786 206.557C276.262 206.557 279.079 203.74 279.079 200.264C279.079 196.789 276.262 193.971 272.786 193.971C269.31 193.971 266.493 196.789 266.493 200.264C266.493 203.74 269.31 206.557 272.786 206.557Z" fill="#333333"/>
<path d="M331.817 233.398C335.292 233.398 338.11 230.581 338.11 227.105C338.11 223.629 335.292 220.812 331.817 220.812C328.341 220.812 325.524 223.629 325.524 227.105C325.524 230.581 328.341 233.398 331.817 233.398Z" fill="#333333"/>
<path d="M353.372 229.607C350.274 229.607 347.211 228.947 344.387 227.673C341.563 226.398 339.042 224.538 336.992 222.215C334.942 219.892 333.409 217.159 332.496 214.199C331.582 211.238 331.308 208.118 331.693 205.043C331.732 204.785 331.87 204.552 332.078 204.394C332.286 204.236 332.547 204.166 332.806 204.198C333.065 204.231 333.301 204.363 333.464 204.567C333.627 204.772 333.703 205.031 333.677 205.291C333.295 208.348 333.63 211.451 334.654 214.356C335.679 217.261 337.365 219.888 339.58 222.029C341.795 224.169 344.478 225.765 347.416 226.69C350.354 227.615 353.467 227.844 356.509 227.358C356.771 227.316 357.039 227.38 357.254 227.536C357.469 227.692 357.613 227.927 357.655 228.189C357.696 228.451 357.632 228.719 357.476 228.933C357.321 229.148 357.086 229.292 356.824 229.334C355.682 229.516 354.528 229.607 353.372 229.607Z" fill="#333333"/>
<path d="M271.492 192.868C268.164 192.868 264.879 192.108 261.889 190.647C258.899 189.186 256.281 187.061 254.236 184.435C254.073 184.226 254 183.96 254.033 183.697C254.065 183.434 254.201 183.195 254.41 183.032C254.62 182.869 254.885 182.796 255.148 182.828C255.412 182.861 255.651 182.997 255.814 183.206C257.706 185.637 260.137 187.595 262.916 188.924C265.695 190.253 268.746 190.918 271.826 190.865C274.906 190.812 277.931 190.043 280.663 188.618C283.394 187.194 285.757 185.154 287.564 182.659C287.64 182.551 287.737 182.459 287.85 182.389C287.962 182.319 288.087 182.272 288.217 182.25C288.348 182.228 288.481 182.233 288.61 182.263C288.739 182.294 288.86 182.349 288.967 182.427C289.075 182.505 289.165 182.603 289.234 182.716C289.303 182.829 289.349 182.954 289.369 183.085C289.389 183.216 289.383 183.349 289.351 183.478C289.319 183.606 289.262 183.727 289.183 183.833C287.158 186.63 284.499 188.907 281.424 190.478C278.349 192.048 274.945 192.867 271.492 192.868Z" fill="#333333"/>
<path d="M302.213 274.849C301.991 274.849 301.776 274.775 301.601 274.64C301.426 274.504 301.3 274.314 301.245 274.099C299.618 267.82 295.961 262.256 290.842 258.273C285.723 254.29 279.431 252.112 272.945 252.078H272.785C266.956 252.068 261.257 253.801 256.421 257.055C256.201 257.198 255.933 257.248 255.677 257.195C255.42 257.142 255.194 256.991 255.048 256.773C254.901 256.555 254.846 256.289 254.895 256.031C254.943 255.774 255.091 255.545 255.306 255.395C260.472 251.92 266.559 250.068 272.785 250.078H272.955C279.882 250.115 286.603 252.442 292.07 256.697C297.537 260.951 301.444 266.894 303.182 273.6C303.248 273.857 303.21 274.129 303.075 274.358C302.94 274.586 302.721 274.752 302.464 274.818C302.382 274.839 302.298 274.85 302.213 274.849Z" fill="#333333"/>
<path d="M450.618 268.369C450.404 268.369 450.196 268.3 450.023 268.173C449.851 268.046 449.725 267.867 449.662 267.662C446.344 255.276 445.458 242.364 447.055 229.641C449.64 211.041 459.898 186.63 494.086 175.941C498.896 174.395 503.83 173.264 508.834 172.56C510.444 162.499 516.573 151.585 530.277 144.06C562.84 126.168 584.835 142.221 585.052 142.385C585.157 142.464 585.246 142.563 585.312 142.676C585.379 142.789 585.423 142.914 585.442 143.044C585.46 143.174 585.453 143.306 585.421 143.433C585.388 143.561 585.331 143.68 585.252 143.785C585.173 143.89 585.074 143.979 584.961 144.046C584.848 144.112 584.723 144.156 584.593 144.175C584.463 144.194 584.331 144.186 584.204 144.154C584.077 144.121 583.957 144.064 583.852 143.985C583.644 143.829 562.625 128.569 531.242 145.814C518.435 152.851 512.573 162.951 510.906 172.327C525.985 170.842 533.206 175.872 536.447 179.672C538.453 181.956 539.742 184.78 540.154 187.792C540.565 190.804 540.082 193.87 538.763 196.609C537.721 198.823 536.032 200.668 533.919 201.902C531.806 203.135 529.368 203.699 526.928 203.518C518.508 203.025 511.539 195.94 509.177 185.47C508.397 181.926 508.19 178.28 508.562 174.67C503.856 175.346 499.214 176.413 494.685 177.86C468.041 186.192 452.685 203.71 449.038 229.927C447.474 242.361 448.336 254.981 451.576 267.087C451.622 267.237 451.632 267.395 451.606 267.549C451.579 267.703 451.517 267.849 451.424 267.975C451.331 268.1 451.21 268.203 451.07 268.273C450.931 268.343 450.776 268.38 450.62 268.38L450.618 268.369ZM510.6 174.414C510.184 177.955 510.362 181.541 511.127 185.023C513.288 194.601 519.536 201.074 527.045 201.515C529.091 201.662 531.135 201.186 532.906 200.151C534.678 199.116 536.095 197.57 536.972 195.715C538.115 193.327 538.53 190.655 538.166 188.033C537.802 185.41 536.675 182.953 534.925 180.966C530.248 175.479 521.715 173.263 510.6 174.414Z" fill="#333333"/>
<path d="M608.347 152.487C607 152.484 605.681 152.101 604.543 151.381C603.405 150.661 602.493 149.634 601.914 148.418C601.334 147.202 601.11 145.847 601.268 144.509C601.426 143.172 601.958 141.906 602.805 140.858C603.651 139.81 604.776 139.023 606.051 138.587C607.325 138.151 608.697 138.085 610.008 138.396C611.318 138.706 612.514 139.381 613.458 140.342C614.401 141.303 615.054 142.512 615.34 143.828C615.565 144.871 615.553 145.952 615.306 146.99C615.059 148.028 614.583 148.998 613.913 149.829C613.242 150.659 612.394 151.329 611.431 151.789C610.468 152.249 609.414 152.487 608.347 152.487ZM608.362 140.202C607.594 140.203 606.837 140.375 606.144 140.706C605.452 141.038 604.843 141.52 604.361 142.118C603.879 142.715 603.537 143.413 603.36 144.16C603.183 144.907 603.176 145.684 603.338 146.434C603.544 147.382 604.014 148.252 604.693 148.945C605.373 149.637 606.234 150.123 607.178 150.346C608.122 150.569 609.11 150.521 610.028 150.207C610.945 149.892 611.756 149.325 612.364 148.57C612.973 147.814 613.356 146.902 613.468 145.939C613.581 144.976 613.418 144 613 143.125C612.581 142.25 611.924 141.511 611.103 140.994C610.282 140.477 609.332 140.202 608.362 140.202Z" fill="#333333"/>
<path d="M605.335 168.809C603.499 168.81 601.733 168.108 600.399 166.846C599.066 165.584 598.267 163.859 598.167 162.026C598.067 160.193 598.674 158.392 599.863 156.993C601.051 155.594 602.731 154.703 604.556 154.505C606.381 154.307 608.212 154.816 609.673 155.928C611.134 157.039 612.113 158.669 612.409 160.48C612.705 162.292 612.295 164.148 611.263 165.667C610.232 167.185 608.657 168.251 606.864 168.643C606.362 168.754 605.849 168.809 605.335 168.809ZM605.361 156.523C604.991 156.523 604.622 156.563 604.261 156.642C602.984 156.923 601.862 157.682 601.128 158.764C600.393 159.846 600.102 161.169 600.313 162.46C600.523 163.75 601.221 164.911 602.262 165.703C603.302 166.495 604.607 166.858 605.907 166.717C607.208 166.577 608.405 165.943 609.252 164.947C610.099 163.951 610.532 162.667 610.462 161.362C610.392 160.056 609.824 158.826 608.876 157.926C607.927 157.026 606.669 156.524 605.361 156.523Z" fill="#333333"/>
<path d="M616.074 155.407C616.704 151.992 613.07 148.458 607.956 147.514C602.842 146.57 598.185 148.574 597.555 151.99C596.925 155.406 600.559 158.94 605.673 159.883C610.787 160.827 615.444 158.823 616.074 155.407Z" fill="white"/>
<path d="M608.2 161.12C607.294 161.119 606.391 161.035 605.5 160.869C602.985 160.452 600.647 159.31 598.772 157.583C597.914 156.913 597.255 156.021 596.869 155.003C596.482 153.986 596.382 152.881 596.58 151.811C596.778 150.74 597.265 149.744 597.989 148.931C598.714 148.119 599.647 147.52 600.688 147.201C603.067 146.303 605.646 146.072 608.146 146.533C610.646 146.995 612.973 148.131 614.874 149.819C615.732 150.489 616.391 151.381 616.777 152.399C617.164 153.416 617.264 154.521 617.066 155.591C616.868 156.662 616.381 157.658 615.657 158.471C614.932 159.283 613.999 159.882 612.958 160.201C611.45 160.825 609.832 161.138 608.2 161.12ZM605.438 148.281C604.08 148.264 602.733 148.521 601.477 149.038C600.74 149.226 600.072 149.621 599.553 150.177C599.033 150.733 598.684 151.425 598.545 152.173C598.407 152.922 598.486 153.694 598.773 154.398C599.06 155.103 599.543 155.71 600.164 156.149C601.782 157.561 603.749 158.511 605.86 158.901C607.972 159.291 610.149 159.105 612.164 158.364C612.875 158.126 613.515 157.715 614.027 157.168C614.539 156.62 614.906 155.953 615.095 155.228C615.177 154.483 615.072 153.73 614.79 153.036C614.507 152.342 614.056 151.729 613.477 151.253C611.885 149.801 609.904 148.844 607.777 148.5C607.005 148.356 606.221 148.283 605.435 148.281H605.438Z" fill="#333333"/>
<path d="M605.66 147.285L603.649 159.351L606.617 160.027L609.105 147.778L605.66 147.285Z" fill="#333333"/>
<path d="M617.715 160.266C618.252 160.266 618.687 159.831 618.687 159.294C618.687 158.757 618.252 158.322 617.715 158.322C617.178 158.322 616.743 158.757 616.743 159.294C616.743 159.831 617.178 160.266 617.715 160.266Z" fill="#333333"/>
<path d="M619.41 155.29C619.947 155.29 620.382 154.855 620.382 154.318C620.382 153.781 619.947 153.346 619.41 153.346C618.873 153.346 618.438 153.781 618.438 154.318C618.438 154.855 618.873 155.29 619.41 155.29Z" fill="#333333"/>
</g>
<defs>
<clipPath id="clip0_1080_7694">
<rect width="620.382" height="515.378" fill="white"/>
</clipPath>
</defs>
</svg>
