<svg width="932" height="786" viewBox="0 0 932 786" fill="none" xmlns="http://www.w3.org/2000/svg">
<g clip-path="url(#clip0_1080_8125)">
<path d="M867.554 785.516C904.176 785.516 933.394 748.026 931.776 703.123C929.662 644.412 905.2 561.511 808.784 478.663C691.209 377.633 744.238 86.749 494.422 106.82C244.606 126.891 296.4 347.145 143.221 445.673C45.714 508.392 0.006 625.822 0 706.739C0 750.268 28.818 785.516 64.283 785.516H867.554Z" fill="#F3F5FD"/>
<path d="M566.711 8.823H309.419C289.716 8.823 273.743 24.7957 273.743 44.499V600.942C273.743 620.645 289.716 636.618 309.419 636.618H566.711C586.414 636.618 602.387 620.645 602.387 600.942V44.499C602.387 24.7957 586.414 8.823 566.711 8.823Z" fill="white"/>
<path d="M566.712 645.441H309.419C297.621 645.428 286.31 640.736 277.967 632.393C269.624 624.05 264.932 612.739 264.919 600.941V44.5C264.932 32.7018 269.624 21.3906 277.967 13.0481C286.31 4.70551 297.621 0.0129698 309.419 0L566.712 0C578.51 0.0129698 589.821 4.70551 598.164 13.0481C606.506 21.3906 611.199 32.7018 611.212 44.5V600.943C611.198 612.741 606.506 624.051 598.163 632.394C589.821 640.736 578.51 645.428 566.712 645.441ZM309.419 17.646C302.299 17.6539 295.474 20.4858 290.439 25.5202C285.405 30.5546 282.574 37.3804 282.566 44.5V600.943C282.574 608.062 285.406 614.888 290.44 619.922C295.474 624.955 302.3 627.787 309.419 627.795H566.712C573.831 627.787 580.656 624.955 585.69 619.921C590.724 614.887 593.556 608.062 593.564 600.943V44.5C593.556 37.3808 590.724 30.5554 585.69 25.5212C580.657 20.487 573.831 17.6552 566.712 17.647L309.419 17.646Z" fill="#DEE8F5"/>
<path d="M381.729 8.823H494.4V30.683C494.4 35.0227 492.676 39.1847 489.607 42.2534C486.539 45.322 482.377 47.046 478.037 47.046H398.092C393.752 47.046 389.59 45.322 386.522 42.2534C383.453 39.1847 381.729 35.0227 381.729 30.683V8.823Z" fill="#DEE8F5"/>
<path d="M373.802 79.288H303.906V149.184H373.802V79.288Z" fill="#DEE8F5"/>
<path d="M572.223 119.869H390.063V138.403H572.223V119.869Z" fill="#DEE8F5"/>
<path d="M519.8 86.673H390.063V105.207H519.8V86.673Z" fill="#DEE8F5"/>
<path d="M572.223 169.191H303.906V371.382H572.223V169.191Z" fill="#05CE78"/>
<path d="M572.223 397.731H303.906V599.922H572.223V397.731Z" fill="#DEE8F5"/>
<path d="M336.432 310.45L383.745 269.279L437.358 310.45H336.432Z" fill="white"/>
<path d="M392.142 310.45L476.317 250.001L539.698 310.45H392.142Z" fill="white"/>
<path d="M419.569 251.047C425.347 251.047 430.031 246.363 430.031 240.585C430.031 234.807 425.347 230.123 419.569 230.123C413.791 230.123 409.107 234.807 409.107 240.585C409.107 246.363 413.791 251.047 419.569 251.047Z" fill="white"/>
<path d="M336.432 538.99L383.745 497.819L437.358 538.99H336.432Z" fill="white"/>
<path d="M392.142 538.99L476.317 478.541L539.698 538.99H392.142Z" fill="white"/>
<path d="M419.569 479.587C425.347 479.587 430.031 474.903 430.031 469.125C430.031 463.347 425.347 458.663 419.569 458.663C413.791 458.663 409.107 463.347 409.107 469.125C409.107 474.903 413.791 479.587 419.569 479.587Z" fill="white"/>
<path d="M211.669 774.7L190.815 772.22C191.754 764.327 192.815 754.846 192.887 753.292C192.887 753.392 192.887 753.473 192.887 753.536H213.887C213.882 754.163 213.882 756.079 211.669 774.7Z" fill="#E98862"/>
<path d="M127.993 777.207L106.993 777.138C106.993 777.138 107.063 755.454 107.063 753.533H128.063C128.063 755.46 127.993 777.207 127.993 777.207Z" fill="#E98862"/>
<path d="M182.421 768.066L219.421 767.435C217.682 723.404 217.576 677.217 217.034 633.079C209.814 585.505 206.011 533.262 197.099 486.03L196.832 486.108L196.051 480.779L119.973 476.079C119.973 476.079 116.934 513.356 116.247 525.779C112.3 597.18 106.1 697.735 101.58 766.873L138.449 769.988C145.091 702.203 153.372 603.432 159.695 532.222C166.955 566.891 173.895 602.79 180.209 637.162C181.472 680.188 182.539 725.167 182.421 768.066Z" fill="#333333"/>
<path d="M153.521 785.329C154.086 785.327 154.645 785.208 155.162 784.98C155.679 784.752 156.144 784.42 156.527 784.004C156.91 783.589 157.203 783.098 157.387 782.564C157.572 782.03 157.644 781.463 157.6 780.9C157.539 780.12 157.257 779.373 156.786 778.748C156.315 778.123 155.675 777.645 154.942 777.371L130.5 769.186C130.027 769.029 129.525 768.977 129.029 769.032C128.533 769.087 128.055 769.249 127.628 769.506C124.268 771.837 120.248 773.029 116.16 772.906C112.976 772.68 109.919 771.563 107.339 769.684C107.112 769.498 106.837 769.38 106.546 769.344C106.255 769.309 105.96 769.357 105.695 769.482C105.43 769.608 105.206 769.807 105.05 770.055C104.894 770.303 104.811 770.591 104.812 770.884V782.836C104.812 783.189 104.882 783.538 105.017 783.863C105.152 784.189 105.35 784.485 105.6 784.734C105.85 784.982 106.147 785.179 106.473 785.313C106.799 785.447 107.148 785.515 107.501 785.514L153.521 785.329Z" fill="#C1D8ED"/>
<path d="M237.254 785.329C237.819 785.326 238.377 785.207 238.894 784.979C239.41 784.751 239.875 784.419 240.257 784.004C240.64 783.588 240.933 783.099 241.117 782.565C241.302 782.031 241.375 781.465 241.331 780.902C241.27 780.122 240.987 779.375 240.516 778.75C240.045 778.124 239.405 777.647 238.672 777.373L214.23 769.186C213.756 769.029 213.254 768.977 212.759 769.032C212.263 769.087 211.785 769.249 211.357 769.506C207.997 771.837 203.977 773.029 199.889 772.906C196.705 772.679 193.649 771.563 191.069 769.684C190.842 769.498 190.567 769.38 190.276 769.344C189.985 769.309 189.69 769.357 189.425 769.482C189.16 769.608 188.936 769.807 188.78 770.055C188.624 770.303 188.541 770.591 188.542 770.884V782.836C188.542 783.189 188.612 783.538 188.747 783.863C188.882 784.189 189.08 784.485 189.33 784.734C189.58 784.982 189.877 785.179 190.203 785.313C190.529 785.447 190.878 785.515 191.231 785.514L237.254 785.329Z" fill="#C1D8ED"/>
<path d="M248.224 383.538C248.224 383.538 249.824 371.633 258.269 373.29C263.599 374.335 289.289 376.254 289.386 378.629C289.627 384.504 266.086 383.067 263.315 388.174L248.224 383.538Z" fill="#E98862"/>
<path d="M255.206 373.305C255.206 373.305 267.537 370.882 270.368 371.929C272.875 372.856 266.984 376.403 266.984 376.403L255.206 373.305Z" fill="#E98862"/>
<path d="M127.751 332.976C127.597 318.107 133.474 308.893 141.442 303.834C149.304 298.842 173.957 294.497 183.304 312.618C189.404 324.443 186.996 328.67 188.724 347.609C190.452 366.548 197.09 368.536 203.824 391.492C209.104 409.499 179.524 419.058 153.912 418.232C128.3 417.406 112.062 411.732 110.576 395.445C108.44 372.066 128.052 362.115 127.751 332.976Z" fill="#333333"/>
<path d="M143.012 374.086C143.012 374.086 150.706 369.915 148.787 348.875L164.735 345.766C164.735 345.766 163.114 364.661 171.251 370.58L143.012 374.086Z" fill="#E98862"/>
<g opacity="0.15">
<path d="M167.941 366.663L154.576 356.632L164.999 356.432C165.334 359.996 166.332 363.466 167.941 366.663Z" fill="#333333"/>
</g>
<path d="M139.648 340.794C140.812 347.172 144.354 353.194 150.008 355.201C156.173 357.583 162.826 358.42 169.388 357.639C186.864 356.039 183.04 316.31 174.666 308.662C166.292 301.014 141.966 306.129 139.123 319.075C137.651 325.771 138.539 334.723 139.648 340.794Z" fill="#E98862"/>
<path d="M164.607 335.644C165.407 335.644 166.056 334.995 166.056 334.195C166.056 333.395 165.407 332.746 164.607 332.746C163.807 332.746 163.158 333.395 163.158 334.195C163.158 334.995 163.807 335.644 164.607 335.644Z" fill="#333333"/>
<path d="M176.029 334.602C176.829 334.602 177.478 333.953 177.478 333.153C177.478 332.353 176.829 331.704 176.029 331.704C175.229 331.704 174.58 332.353 174.58 333.153C174.58 333.953 175.229 334.602 176.029 334.602Z" fill="#333333"/>
<path d="M178.505 330.042L174.667 330.029C174.487 330.029 174.314 329.957 174.186 329.83C174.058 329.702 173.986 329.529 173.986 329.348C173.986 329.167 174.058 328.994 174.186 328.866C174.314 328.739 174.487 328.667 174.667 328.667L178.505 328.68C178.686 328.68 178.859 328.752 178.987 328.879C179.115 329.007 179.186 329.18 179.186 329.361C179.186 329.542 179.115 329.715 178.987 329.843C178.859 329.97 178.686 330.042 178.505 330.042Z" fill="#333333"/>
<path d="M161.449 331.6C161.284 331.599 161.124 331.538 161 331.428C160.876 331.318 160.797 331.166 160.777 331.002C160.757 330.837 160.797 330.671 160.891 330.534C160.984 330.398 161.125 330.3 161.285 330.259L165.06 329.313C165.234 329.274 165.415 329.305 165.567 329.398C165.718 329.491 165.827 329.64 165.87 329.812C165.913 329.985 165.887 330.167 165.797 330.321C165.708 330.474 165.562 330.587 165.39 330.634L161.615 331.579C161.561 331.593 161.505 331.6 161.449 331.6Z" fill="#333333"/>
<path d="M165.382 345.6C165.382 345.6 170.735 346.115 174.472 344.77C174.472 344.77 174.472 348.293 170.246 348.679C166.02 349.065 165.382 345.6 165.382 345.6Z" fill="white"/>
<path d="M151.263 324.135C152.464 339.098 150.967 354.154 146.844 368.588C146.844 368.588 134.444 347.688 132.378 330.201C130.446 313.81 142.448 304.011 150.6 302.11C181.58 294.883 183.731 317.48 183.731 317.48C181.731 325.189 147.908 329.972 147.908 329.972" fill="#333333"/>
<path d="M157.348 340.507C157.486 342.124 156.979 343.73 155.936 344.974C154.894 346.218 153.402 347 151.786 347.147C150.169 347.294 148.56 346.796 147.31 345.761C146.06 344.726 145.27 343.238 145.113 341.623C145.026 340.817 145.102 340.002 145.336 339.226C145.57 338.45 145.958 337.729 146.477 337.106C146.996 336.483 147.634 335.971 148.355 335.6C149.076 335.229 149.864 335.007 150.672 334.947C155.049 334.764 157.04 337.128 157.348 340.507Z" fill="#E98862"/>
<g opacity="0.15">
<path d="M171.108 342.172C170.989 342.172 170.874 342.129 170.784 342.051C170.694 341.973 170.634 341.866 170.616 341.748C170.598 341.631 170.622 341.511 170.685 341.409C170.747 341.308 170.844 341.232 170.957 341.196L173.895 340.264L171.795 335.692C171.766 335.632 171.748 335.567 171.744 335.5C171.74 335.433 171.75 335.366 171.772 335.303C171.794 335.24 171.829 335.182 171.874 335.133C171.919 335.084 171.974 335.044 172.034 335.016C172.095 334.988 172.161 334.972 172.228 334.97C172.294 334.968 172.361 334.98 172.423 335.004C172.486 335.028 172.543 335.064 172.591 335.11C172.639 335.157 172.677 335.212 172.703 335.274L175.043 340.36C175.073 340.424 175.089 340.494 175.09 340.565C175.09 340.636 175.076 340.706 175.048 340.771C175.019 340.835 174.978 340.893 174.925 340.941C174.873 340.988 174.811 341.024 174.743 341.046L171.265 342.146C171.215 342.163 171.162 342.172 171.108 342.172Z" fill="#333333"/>
</g>
<path d="M218.091 452.37C217.938 452.37 217.786 452.37 217.632 452.36C215.759 452.281 213.938 451.721 212.345 450.733C210.751 449.746 209.44 448.364 208.537 446.721L176.508 388.471L195.616 377.971L218.976 420.455L248.185 376.541L266.34 388.616L227.168 447.51C226.172 449.005 224.823 450.231 223.239 451.079C221.656 451.927 219.887 452.371 218.091 452.37Z" fill="#1D9BF0"/>
<path d="M226.879 403.239L214.757 401.305C214.28 401.229 213.825 401.052 213.422 400.788C213.018 400.523 212.675 400.176 212.414 399.77C212.154 399.363 211.983 398.907 211.911 398.429C211.84 397.952 211.87 397.465 212 397L219.627 369.627C219.853 368.816 220.369 368.117 221.078 367.662C221.786 367.208 222.637 367.03 223.468 367.163L235.59 369.097C236.066 369.173 236.521 369.349 236.925 369.613C237.329 369.877 237.672 370.223 237.933 370.629C238.193 371.035 238.365 371.491 238.438 371.968C238.51 372.445 238.48 372.932 238.351 373.397L230.724 400.77C230.499 401.583 229.983 402.284 229.273 402.739C228.564 403.195 227.711 403.373 226.879 403.239Z" fill="#333333"/>
<path d="M207.358 396.066L214.507 405.766C214.507 405.766 233.723 401.915 235.525 387.111C235.733 385.406 235.553 380.691 233.442 381.324C227.942 382.972 221.097 391.411 216.298 392.534C217.393 390.573 218.729 387.803 217.868 387.297C215.6 385.964 209.507 394 207.358 396.066Z" fill="#E98862"/>
<path d="M196.055 435.2C196.07 433.849 196.121 432.474 196.196 431.081L222.166 408.266L207.775 391.885L199.361 399.277C200.307 382.635 197.372 369.114 177.775 368.27C177.145 368.24 176.135 368.22 174.835 368.2C174.575 373.7 140.515 373.68 139.795 368.07C130.175 368.08 122.285 371.03 117.715 375.6C101.965 391.35 121.295 418.19 121.295 439.19C121.295 460.19 111.795 469.61 112.495 480.39C113.595 497.33 195.925 493.33 200.114 483.7C204.435 473.781 195.665 467.661 196.055 435.2Z" fill="#1D9BF0"/>
<path d="M666.572 665.086H654.33V785.516H666.572V665.086Z" fill="#C1D8ED"/>
<path d="M656.497 665.086H644.255V785.516H656.497V665.086Z" fill="#DEE8F5"/>
<path d="M819.054 665.086H806.812V785.516H819.054V665.086Z" fill="#C1D8ED"/>
<path d="M808.979 665.086H796.737V785.516H808.979V665.086Z" fill="#DEE8F5"/>
<path d="M700.149 665.086H687.907V785.516H700.149V665.086Z" fill="#C1D8ED"/>
<path d="M690.074 665.086H677.832V785.516H690.074V665.086Z" fill="#DEE8F5"/>
<path d="M852.631 665.086H840.389V785.516H852.631V665.086Z" fill="#C1D8ED"/>
<path d="M842.556 665.086H830.314V785.516H842.556V665.086Z" fill="#DEE8F5"/>
<path d="M852.63 587.999H687.983V667.974H852.63V587.999Z" fill="#C1D8ED"/>
<path d="M808.902 587.999H644.255V667.974H808.902V587.999Z" fill="#DEE8F5"/>
<g opacity="0.53">
<path d="M800.045 599.368H653.113V656.251H800.045V599.368Z" fill="#F3F5FD"/>
</g>
<path d="M726.579 634.335C730.183 634.335 733.105 631.413 733.105 627.809C733.105 624.205 730.183 621.283 726.579 621.283C722.975 621.283 720.053 624.205 720.053 627.809C720.053 631.413 722.975 634.335 726.579 634.335Z" fill="white"/>
<path d="M808.753 517.392L796.984 514.61L782.228 577.021L793.997 579.804L808.753 517.392Z" fill="#F0F6FF"/>
<path d="M784.04 509.759L777.507 510.964L787.612 565.745L794.146 564.54L784.04 509.759Z" fill="#C1D8ED"/>
<path d="M784.037 509.74L777.51 510.982L778.66 517.025L785.187 515.782L784.037 509.74Z" fill="#DEE8F5"/>
<path d="M804.269 523.694L783.095 577.443L786.724 578.872L807.898 525.124L804.269 523.694Z" fill="#05CE78"/>
<path d="M808.903 547.205H776.985V587.998H808.903V547.205Z" fill="#C1D8ED"/>
<path d="M174.835 368.2C174.575 373.7 171.585 381.79 162.355 382.4C150.055 383.21 140.515 373.68 139.794 368.07H139.825C151.935 368.071 167.774 368.091 174.835 368.2Z" fill="#E98862"/>
</g>
<defs>
<clipPath id="clip0_1080_8125">
<rect width="931.84" height="785.516" fill="white"/>
</clipPath>
</defs>
</svg>
