<svg width="16" height="15" viewBox="0 0 16 15" fill="none" xmlns="http://www.w3.org/2000/svg">
<path d="M15.291 0.630495C14.8362 0.226763 14.2196 0 13.5768 0C12.934 0 12.3174 0.226763 11.8626 0.630495L0.980247 10.3039C0.668613 10.5793 0.42152 10.907 0.253265 11.2679C0.085009 11.6287 -0.00106921 12.0157 1.0024e-05 12.4064V13.6274C1.0024e-05 13.7852 0.0705047 13.9365 0.195986 14.048C0.321467 14.1595 0.491657 14.2222 0.669114 14.2222H2.04278C2.48223 14.2233 2.91755 14.1469 3.32355 13.9975C3.72956 13.848 4.09817 13.6284 4.40807 13.3515L15.291 3.67751C15.745 3.27318 16 2.72526 16 2.154C16 1.58274 15.745 1.03482 15.291 0.630495ZM3.46195 12.5105C3.08458 12.8437 2.5747 13.0313 2.04278 13.0327H1.33822V12.4064C1.33754 12.172 1.38917 11.9398 1.49013 11.7232C1.59108 11.5067 1.73936 11.3101 1.92636 11.1449L10.1851 3.8036L11.724 5.17158L3.46195 12.5105ZM14.3443 2.8365L12.6675 4.32759L11.1285 2.96259L12.806 1.4715C12.907 1.38187 13.027 1.31082 13.1589 1.26239C13.2908 1.21395 13.4322 1.1891 13.575 1.18924C13.7177 1.18937 13.859 1.2145 13.9909 1.26319C14.1227 1.31188 14.2424 1.38317 14.3433 1.47299C14.4441 1.56281 14.524 1.66941 14.5785 1.78669C14.633 1.90398 14.661 2.02965 14.6608 2.15654C14.6606 2.28343 14.6324 2.40905 14.5776 2.52623C14.5228 2.64341 14.4426 2.74985 14.3416 2.83948L14.3443 2.8365Z" fill="#B3B3B3"/>
</svg>
