<svg width="18" height="18" viewBox="0 0 18 18" fill="none" xmlns="http://www.w3.org/2000/svg">
<g clip-path="url(#clip0_1051_4888)">
<path d="M1.5 10.5002C2.32843 10.5002 3 9.82867 3 9.00024C3 8.17182 2.32843 7.50024 1.5 7.50024C0.671573 7.50024 0 8.17182 0 9.00024C0 9.82867 0.671573 10.5002 1.5 10.5002Z" fill="#868889"/>
<path d="M9 10.5002C9.82842 10.5002 10.5 9.82867 10.5 9.00024C10.5 8.17182 9.82842 7.50024 9 7.50024C8.17157 7.50024 7.5 8.17182 7.5 9.00024C7.5 9.82867 8.17157 10.5002 9 10.5002Z" fill="#868889"/>
<path d="M16.5 10.5002C17.3284 10.5002 18 9.82867 18 9.00024C18 8.17182 17.3284 7.50024 16.5 7.50024C15.6716 7.50024 15 8.17182 15 9.00024C15 9.82867 15.6716 10.5002 16.5 10.5002Z" fill="#868889"/>
</g>
<defs>
<clipPath id="clip0_1051_4888">
<rect width="18" height="18" fill="white"/>
</clipPath>
</defs>
</svg>
