<svg width="194" height="121" viewBox="0 0 194 121" fill="none" xmlns="http://www.w3.org/2000/svg">
<g clip-path="url(#clip0_932_6557)">
<path d="M194 121H0C2.12573 115.549 6.05137 110.926 11.5852 109.555C19.6806 107.551 28.2475 113.06 36.3248 110.989C40.9137 109.813 44.5265 106.386 48.3227 103.541C62.6446 92.8054 82.2711 89.6323 99.2182 95.3148C108.077 98.2835 116.149 103.475 125.224 105.683C136.958 108.538 149.23 106.171 161.296 105.781C173.049 105.4 189.888 110.215 194 121Z" fill="#F3F5FD"/>
<path d="M115.356 89.1772H90.8291V117.091H115.356V89.1772Z" fill="#DEE8F5"/>
<path d="M162.786 0H43.3987C40.7844 0 38.665 2.13082 38.665 4.75933V98.0708C38.665 100.699 40.7844 102.83 43.3987 102.83H162.786C165.4 102.83 167.52 100.699 167.52 98.0708V4.75933C167.52 2.13082 165.4 0 162.786 0Z" fill="#DEE8F5"/>
<path d="M162.542 3.28784H43.7432C42.5874 3.28784 41.6504 4.22992 41.6504 5.39202V87.0206C41.6504 88.1827 42.5874 89.1248 43.7432 89.1248H162.542C163.698 89.1248 164.635 88.1827 164.635 87.0206V5.39202C164.635 4.22992 163.698 3.28784 162.542 3.28784Z" fill="white"/>
<path d="M123.099 114.589H83.0848C81.324 114.589 79.8965 116.024 79.8965 117.794C79.8965 119.565 81.324 121 83.0848 121H123.099C124.86 121 126.288 119.565 126.288 117.794C126.288 116.024 124.86 114.589 123.099 114.589Z" fill="#DEE8F5"/>
<path d="M114.087 66.8901H92.0986V72.4705H114.087V66.8901Z" fill="#DEE8F5"/>
<path d="M111.78 16.1323V18.5608C111.78 18.9738 111.616 19.3699 111.326 19.662C111.035 19.9541 110.641 20.1182 110.231 20.1182H79.1447C78.7339 20.1182 78.3399 20.2822 78.0494 20.5743C77.7589 20.8664 77.5957 21.2625 77.5957 21.6755V57.1957C77.5957 57.6088 77.7589 58.0049 78.0494 58.2969C78.3399 58.589 78.7339 58.7531 79.1447 58.7531H127.04C127.451 58.7531 127.845 58.589 128.135 58.2969C128.426 58.0049 128.589 57.6088 128.589 57.1957V16.1323C128.589 15.7193 128.426 15.3232 128.135 15.0311C127.845 14.739 127.451 14.575 127.04 14.575H113.329C113.126 14.5749 112.924 14.6151 112.736 14.6933C112.548 14.7715 112.377 14.8862 112.234 15.0309C112.09 15.1755 111.975 15.3472 111.898 15.5362C111.82 15.7252 111.78 15.9277 111.78 16.1323Z" fill="#DEE8F5"/>
<path d="M103.804 30.7019H102.381V48.1704H103.804V30.7019Z" fill="white"/>
<path d="M111.78 38.7208H94.4053V40.1519H111.78V38.7208Z" fill="white"/>
<path d="M49.2318 119.128L45.6426 118.699C45.8042 117.333 45.9868 115.692 45.9994 115.423C45.9994 115.441 45.9994 115.455 45.9994 115.466H49.6137C49.6128 115.574 49.6128 115.906 49.2318 119.128Z" fill="#E98862"/>
<path d="M34.8301 119.562L31.2158 119.55C31.2158 119.55 31.2279 115.798 31.2279 115.466H34.8422C34.8422 115.799 34.8301 119.562 34.8301 119.562Z" fill="#E98862"/>
<path d="M50.5647 117.871C50.2656 110.256 50.2475 102.258 50.1539 94.6219C48.9109 86.3864 48.2574 77.3536 46.7229 69.1764L46.6771 69.1901L46.5425 68.2678L33.4489 67.4553C33.4489 67.4553 33.1075 73.9058 32.9884 76.0555C32.3504 87.578 31.0551 106.098 30.2842 117.774L36.6295 118.313C37.7629 106.83 39.2666 88.5368 40.2906 77.219C41.4145 82.986 42.8186 89.4802 43.8163 95.3155C44.0349 102.77 44.2173 110.538 44.1975 117.98L50.5647 117.871Z" fill="#262626"/>
<path d="M39.2238 120.968C39.321 120.967 39.4171 120.946 39.506 120.907C39.5949 120.868 39.6748 120.81 39.7406 120.738C39.8065 120.666 39.8569 120.582 39.8887 120.489C39.9205 120.397 39.933 120.299 39.9255 120.201C39.915 120.066 39.8664 119.937 39.7853 119.829C39.7042 119.721 39.5941 119.638 39.4679 119.591L35.261 118.174C35.1795 118.147 35.0932 118.138 35.0079 118.147C34.9225 118.157 34.8403 118.185 34.7667 118.229C34.1884 118.633 33.4965 118.839 32.7929 118.818C32.245 118.778 31.719 118.585 31.2749 118.26C31.2359 118.228 31.1886 118.208 31.1385 118.201C31.0884 118.195 31.0375 118.204 30.9919 118.225C30.9463 118.247 30.9078 118.281 30.8809 118.324C30.8539 118.367 30.8397 118.417 30.8398 118.468V120.536C30.8398 120.597 30.8518 120.657 30.8751 120.714C30.8983 120.77 30.9325 120.821 30.9755 120.864C31.0185 120.907 31.0695 120.942 31.1257 120.965C31.1818 120.988 31.242 121 31.3026 120.999L39.2238 120.968Z" fill="#C1D8ED"/>
<path d="M53.6349 120.968C53.7321 120.967 53.8282 120.946 53.9171 120.907C54.006 120.868 54.0859 120.81 54.1517 120.738C54.2175 120.666 54.2679 120.582 54.2997 120.489C54.3315 120.397 54.344 120.299 54.3365 120.202C54.326 120.066 54.2774 119.937 54.1964 119.829C54.1153 119.721 54.0052 119.638 53.879 119.591L49.6721 118.174C49.5906 118.147 49.5043 118.138 49.419 118.147C49.3337 118.157 49.2514 118.185 49.1778 118.229C48.5995 118.633 47.9077 118.839 47.2041 118.818C46.6561 118.779 46.13 118.585 45.6859 118.26C45.6469 118.228 45.5996 118.208 45.5494 118.201C45.4993 118.195 45.4485 118.203 45.4029 118.225C45.3573 118.247 45.3188 118.281 45.2919 118.324C45.265 118.367 45.2508 118.417 45.251 118.468V120.536C45.251 120.597 45.2629 120.657 45.2862 120.714C45.3095 120.77 45.3436 120.821 45.3866 120.864C45.4296 120.907 45.4806 120.942 45.5368 120.965C45.5929 120.988 45.6531 121 45.7138 120.999L53.6349 120.968Z" fill="#C1D8ED"/>
<path d="M52.9602 55.297L53.0402 55.3316L52.0391 55.4941L53.0218 57.3802C53.0218 57.3802 56.6659 58.2377 58.371 56.3089C58.4144 56.2598 58.442 56.1986 58.4502 56.1334C58.4585 56.0683 58.447 56.0021 58.4172 55.9436C58.3875 55.8851 58.3409 55.837 58.2835 55.8055C58.2261 55.7741 58.1606 55.7608 58.0956 55.7673C57.1129 55.8675 55.3606 55.9869 54.5715 55.6739C54.9185 55.5026 55.3788 55.2402 55.3066 55.0835C55.1162 54.6714 53.4665 55.2148 52.9602 55.297Z" fill="#E98862"/>
<path d="M49.6182 56.3524L49.9416 56.5549H49.6182V56.3524Z" fill="#FD5D76"/>
<path d="M71.1339 56.4948H52.0391V31.71H67.0701L71.1339 36.0279V56.4948Z" fill="#C1D8ED"/>
<path d="M67.0703 31.71V36.0279H71.1342L67.0703 31.71Z" fill="#DEE8F5"/>
<path d="M68.9679 42.3911H54.2051V43.2165H68.9679V42.3911Z" fill="#DEE8F5"/>
<path d="M68.9679 45.0826H54.2051V45.908H68.9679V45.0826Z" fill="#DEE8F5"/>
<path d="M68.9679 47.7743H54.2051V48.5997H68.9679V47.7743Z" fill="#DEE8F5"/>
<path d="M68.9679 50.4657H54.2051V51.2911H68.9679V50.4657Z" fill="#DEE8F5"/>
<path d="M68.9679 53.1572H54.2051V53.9826H68.9679V53.1572Z" fill="#DEE8F5"/>
<path d="M63.76 55.297L63.84 55.3316L62.8389 55.4941L63.8216 57.3802C63.8216 57.3802 67.4657 58.2377 69.1708 56.3089C69.2142 56.2598 69.2418 56.1986 69.25 56.1334C69.2583 56.0683 69.2468 56.0021 69.217 55.9436C69.1873 55.8851 69.1407 55.837 69.0833 55.8055C69.0259 55.7741 68.9604 55.7608 68.8954 55.7673C67.9127 55.8675 66.1604 55.9869 65.3713 55.6739C65.7183 55.5026 66.1787 55.2402 66.1062 55.0835C65.916 54.6714 64.2657 55.2148 63.76 55.297Z" fill="#E98862"/>
<path d="M37.4316 49.8704C37.4316 49.8704 38.7624 49.1609 38.4653 45.5172L41.215 45.0046C41.215 45.0046 40.9052 48.2713 42.2972 49.3085L37.4316 49.8704Z" fill="#E98862"/>
<path d="M36.9057 44.1043C37.096 45.2099 37.696 46.2566 38.666 46.6134C39.8172 47.0377 40.6694 47.0671 41.9975 47.0671C43.809 47.0671 43.7491 45.1678 43.8 43.2537C43.8517 41.3329 43.6992 39.2706 42.9832 38.6009C41.5547 37.2642 37.3599 38.1107 36.8496 40.3464C36.5857 41.5018 36.7244 43.0526 36.9057 44.1043Z" fill="#E98862"/>
<path d="M41.7914 46.4324C41.5161 46.917 38.9898 46.8933 38.332 46.5017C37.6851 46.1163 36.2306 45.4482 35.7351 42.2999C35.2908 39.4793 37.0218 38.3154 38.4019 37.9003C39.5919 37.5423 42.3687 37.4687 43.6717 38.2585C44.7949 38.9391 43.6717 40.522 43.6717 40.522C43.461 40.5724 43.2453 40.5996 43.0287 40.603C42.2522 40.603 42.0935 41.1114 42.1208 41.4163C42.288 43.2644 42.127 45.8412 41.7914 46.4324Z" fill="#0F1011"/>
<path d="M43.3507 43.6157C43.3641 43.7559 43.3496 43.8974 43.3081 44.0319C43.2666 44.1665 43.199 44.2914 43.109 44.3994C43.0191 44.5074 42.9088 44.5964 42.7843 44.6612C42.6599 44.7259 42.5239 44.7652 42.3843 44.7767C42.2447 44.7881 42.1042 44.7716 41.9709 44.728C41.8377 44.6844 41.7144 44.6146 41.6083 44.5226C41.5021 44.4307 41.4152 44.3185 41.3526 44.1925C41.2899 44.0665 41.2528 43.9292 41.2434 43.7887C41.2296 43.6491 41.2439 43.5082 41.2854 43.3743C41.327 43.2404 41.3949 43.1162 41.4851 43.0093C41.5754 42.9023 41.6861 42.8147 41.8108 42.7517C41.9354 42.6887 42.0714 42.6515 42.2106 42.6425C42.9641 42.6184 43.303 43.0306 43.3507 43.6157Z" fill="#E98862"/>
<path d="M63.2393 54.8681L54.1252 57.8352L53.4853 56.5547H51.388L46.8271 50.6107C46.3097 49.6023 45.3349 48.9478 43.6024 48.8732C42.9114 48.8435 39.5396 48.8386 37.0709 48.8386C35.4124 48.8386 34.0509 49.3501 33.2645 50.1408C30.5538 52.8663 33.8812 57.5108 33.8812 61.1462C33.8812 64.7816 32.2461 66.4098 32.3666 68.2755C32.5559 71.2077 46.7255 70.5148 47.4475 68.8493C48.111 67.316 46.9809 66.3056 46.7775 62.1102L49.755 60.6058L50.5565 61.6503C50.7927 61.9581 51.1177 62.1851 51.4871 62.3001C51.8565 62.4151 52.2522 62.4126 52.6201 62.2928L64.3948 58.4594L63.2393 54.8681ZM46.9472 57.8001C46.9754 57.5532 47.0045 57.3059 47.0343 57.0581L47.4202 57.5609L46.9472 57.8001Z" fill="#1D9BF0"/>
<path d="M24.2753 106.492C23.4147 106.209 22.5315 106.527 21.6864 107.173C22.7994 104.347 23.259 101.795 21.356 101.68C20.0247 101.6 19.0046 102.626 18.2298 104.087C17.9575 101.52 17.2542 99.6048 15.6794 100.24C13.9504 100.937 13.6873 103.325 13.9496 105.824C13.188 104.548 12.3677 103.836 11.6232 104.584C9.40071 106.819 14.8557 113.115 14.8557 113.115H16.2106L16.9837 113.959C16.8272 114.292 16.7415 114.49 16.7415 114.49L17.7236 116.5C17.7236 116.5 27.8467 107.668 24.2753 106.492Z" fill="#8DDBE0"/>
<path d="M21.8464 121H14.1789L12.8955 112H23.13L21.8464 121Z" fill="#C1D8ED"/>
<path d="M172.686 120.381C176.172 119.616 179.585 118.517 182.918 114.906C183.602 114.166 184.268 113.2 184.011 112.221C183.818 111.485 183.122 110.964 182.385 110.783C182.111 110.718 181.83 110.686 181.548 110.687C181.546 110.687 181.545 110.687 181.544 110.687C181.11 110.694 180.677 110.741 180.252 110.828L180.13 110.852C178.1 111.247 176.139 111.941 174.311 112.912C174.145 112.999 173.955 113.028 173.771 112.992C173.588 112.957 173.421 112.861 173.299 112.718C173.177 112.576 173.107 112.396 173.099 112.208C173.092 112.02 173.148 111.835 173.258 111.683C173.46 111.408 173.689 111.155 173.941 110.926C174.313 110.597 174.715 110.303 175.141 110.049C175.709 109.703 176.308 109.403 176.897 109.093C179.083 107.945 181.174 106.623 183.149 105.139C184.561 104.079 185.952 102.887 186.716 101.291C187.067 100.557 187.272 99.694 186.993 98.9293C186.533 97.6732 184.967 97.1979 183.641 97.3358C181.317 97.578 179.347 99.1057 177.585 100.645C176.122 101.924 174.487 103.339 172.55 103.258C172.218 103.26 171.893 103.165 171.615 102.984C171.093 102.601 171.018 101.813 171.267 101.213C171.515 100.614 172.011 100.16 172.49 99.725C175.271 97.1986 178.021 94.5567 179.962 91.3338C181.903 88.111 182.974 84.2002 182.131 80.5276C181.883 79.4547 181.464 78.3936 180.739 77.5665C180.014 76.7394 178.947 76.1678 177.851 76.2196C176.357 76.2877 175.138 77.4452 174.279 78.6741C171.327 82.8924 171.02 88.3461 169.862 93.3697C169.537 94.776 169.117 96.2108 168.175 97.3102C168.088 97.4162 167.979 97.5021 167.855 97.5621C167.127 97.9063 166.573 97.0376 166.372 96.3237C165.576 93.4989 165.586 90.3479 163.937 87.9244C163.308 87.0019 162.375 86.1954 161.266 86.1075C159.911 86 158.655 87.0369 158.149 88.3051C157.642 89.5733 157.758 91.0078 158.071 92.337C158.652 94.8023 159.876 97.0773 161.374 99.114C162.164 100.189 163.066 101.284 163.218 102.611C163.26 103.061 163.188 103.515 163.007 103.929C162.826 104.343 162.543 104.703 162.185 104.977C162.018 105.099 161.828 105.187 161.626 105.235C161.425 105.282 161.216 105.289 161.012 105.253C160.571 105.174 160.189 104.912 159.82 104.657C159.665 104.55 159.51 104.441 159.354 104.334C158.739 103.908 158.123 103.481 157.508 103.054C155.943 101.968 154.038 100.832 152.255 101.496C151.344 101.836 150.703 102.604 150.353 103.518C150.039 104.348 149.963 105.249 150.131 106.121C150.491 107.934 153.288 113.136 154.507 114.52C155.927 116.137 160.756 122.999 172.686 120.381Z" fill="#8DDBE0"/>
</g>
<defs>
<clipPath id="clip0_932_6557">
<rect width="194" height="121" fill="white"/>
</clipPath>
</defs>
</svg>
