<svg width="20" height="22" viewBox="0 0 20 22" fill="none" xmlns="http://www.w3.org/2000/svg">
<path fill-rule="evenodd" clip-rule="evenodd" d="M16.9702 2.65902C16.7612 2.45008 16.5132 2.28435 16.2402 2.17127C15.9672 2.0582 15.6746 2 15.3792 2C15.0837 2 14.7911 2.0582 14.5181 2.17127C14.2451 2.28435 13.9971 2.45008 13.7882 2.65902L2.84817 13.599C2.14495 14.3024 1.74993 15.2563 1.75003 16.2509C1.75012 17.2455 2.14531 18.1993 2.84867 18.9025C3.55202 19.6057 4.50592 20.0008 5.50052 20.0007C6.49512 20.0006 7.44895 19.6054 8.15217 18.902L15.8452 11.209C15.9873 11.0765 16.1754 11.0044 16.3697 11.0078C16.564 11.0113 16.7494 11.09 16.8868 11.2274C17.0242 11.3648 17.1029 11.5502 17.1063 11.7445C17.1098 11.9388 17.0377 12.1268 16.9052 12.269L9.21217 19.962C8.72702 20.4599 8.14783 20.8564 7.5082 21.1287C6.86857 21.4009 6.18124 21.5434 5.4861 21.5479C4.79097 21.5524 4.10185 21.4188 3.45876 21.1549C2.81566 20.8909 2.23139 20.5019 1.73984 20.0104C1.24829 19.5188 0.859255 18.9345 0.595309 18.2914C0.331363 17.6483 0.197762 16.9592 0.202258 16.2641C0.206754 15.5689 0.349258 14.8816 0.621501 14.242C0.893743 13.6024 1.2903 13.0232 1.78817 12.538L12.7272 1.59802C13.4305 0.894797 14.3844 0.499784 15.379 0.499878C16.3736 0.499972 17.3274 0.895165 18.0307 1.59852C18.7339 2.30187 19.1289 3.25577 19.1288 4.25037C19.1287 5.24497 18.7335 6.1988 18.0302 6.90202L7.09717 17.835L7.08917 17.843L7.08217 17.85L7.08017 17.852L7.07717 17.854C6.64953 18.2532 6.08325 18.4701 5.4984 18.4587C4.91354 18.4474 4.35608 18.2088 3.9442 17.7934C3.53232 17.378 3.29841 16.8185 3.29206 16.2336C3.28571 15.6487 3.50741 15.0843 3.91017 14.66L11.7202 6.85002C11.8616 6.71333 12.051 6.63765 12.2476 6.63926C12.4443 6.64088 12.6324 6.71966 12.7715 6.85866C12.9107 6.99765 12.9896 7.18572 12.9914 7.38237C12.9932 7.57902 12.9177 7.7685 12.7812 7.91002L4.97117 15.72C4.82954 15.8598 4.74924 16.0501 4.74793 16.2491C4.74662 16.448 4.8244 16.6394 4.96417 16.781C5.10394 16.9226 5.29424 17.0029 5.49322 17.0043C5.6922 17.0056 5.88354 16.9278 6.02517 16.788L16.9702 5.84002C17.1791 5.63109 17.3448 5.38305 17.4579 5.11006C17.571 4.83708 17.6292 4.5445 17.6292 4.24902C17.6292 3.95354 17.571 3.66096 17.4579 3.38797C17.3448 3.11499 17.1791 2.86795 16.9702 2.65902Z" fill="#333333"/>
</svg>
